G04 #@! TF.GenerationSoftware,KiCad,Pcbnew,(5.1.6)-1*
G04 #@! TF.CreationDate,2020-11-13T23:12:39+01:00*
G04 #@! TF.ProjectId,AskSin-Analyzer-XS-RPi,41736b53-696e-42d4-916e-616c797a6572,rev?*
G04 #@! TF.SameCoordinates,Original*
G04 #@! TF.FileFunction,Paste,Bot*
G04 #@! TF.FilePolarity,Positive*
%FSLAX46Y46*%
G04 Gerber Fmt 4.6, Leading zero omitted, Abs format (unit mm)*
G04 Created by KiCad (PCBNEW (5.1.6)-1) date 2020-11-13 23:12:39*
%MOMM*%
%LPD*%
G01*
G04 APERTURE LIST*
%ADD10R,1.200000X0.800000*%
%ADD11C,0.100000*%
G04 APERTURE END LIST*
D10*
X157700000Y-94450000D03*
X157700000Y-92550000D03*
X159950000Y-93500000D03*
G36*
G01*
X160050000Y-87699999D02*
X160050000Y-88600001D01*
G75*
G02*
X159800001Y-88850000I-249999J0D01*
G01*
X159149999Y-88850000D01*
G75*
G02*
X158900000Y-88600001I0J249999D01*
G01*
X158900000Y-87699999D01*
G75*
G02*
X159149999Y-87450000I249999J0D01*
G01*
X159800001Y-87450000D01*
G75*
G02*
X160050000Y-87699999I0J-249999D01*
G01*
G37*
G36*
G01*
X158000000Y-87699999D02*
X158000000Y-88600001D01*
G75*
G02*
X157750001Y-88850000I-249999J0D01*
G01*
X157099999Y-88850000D01*
G75*
G02*
X156850000Y-88600001I0J249999D01*
G01*
X156850000Y-87699999D01*
G75*
G02*
X157099999Y-87450000I249999J0D01*
G01*
X157750001Y-87450000D01*
G75*
G02*
X158000000Y-87699999I0J-249999D01*
G01*
G37*
G36*
G01*
X136975001Y-96300000D02*
X136074999Y-96300000D01*
G75*
G02*
X135825000Y-96050001I0J249999D01*
G01*
X135825000Y-95399999D01*
G75*
G02*
X136074999Y-95150000I249999J0D01*
G01*
X136975001Y-95150000D01*
G75*
G02*
X137225000Y-95399999I0J-249999D01*
G01*
X137225000Y-96050001D01*
G75*
G02*
X136975001Y-96300000I-249999J0D01*
G01*
G37*
G36*
G01*
X136975001Y-98350000D02*
X136074999Y-98350000D01*
G75*
G02*
X135825000Y-98100001I0J249999D01*
G01*
X135825000Y-97449999D01*
G75*
G02*
X136074999Y-97200000I249999J0D01*
G01*
X136975001Y-97200000D01*
G75*
G02*
X137225000Y-97449999I0J-249999D01*
G01*
X137225000Y-98100001D01*
G75*
G02*
X136975001Y-98350000I-249999J0D01*
G01*
G37*
G36*
G01*
X140063604Y-86299999D02*
X140700001Y-86936396D01*
G75*
G02*
X140700001Y-87289948I-176776J-176776D01*
G01*
X140240380Y-87749569D01*
G75*
G02*
X139886828Y-87749569I-176776J176776D01*
G01*
X139250431Y-87113172D01*
G75*
G02*
X139250431Y-86759620I176776J176776D01*
G01*
X139710052Y-86299999D01*
G75*
G02*
X140063604Y-86299999I176776J-176776D01*
G01*
G37*
G36*
G01*
X141513172Y-84850431D02*
X142149569Y-85486828D01*
G75*
G02*
X142149569Y-85840380I-176776J-176776D01*
G01*
X141689948Y-86300001D01*
G75*
G02*
X141336396Y-86300001I-176776J176776D01*
G01*
X140699999Y-85663604D01*
G75*
G02*
X140699999Y-85310052I176776J176776D01*
G01*
X141159620Y-84850431D01*
G75*
G02*
X141513172Y-84850431I176776J-176776D01*
G01*
G37*
G36*
G01*
X158350001Y-97200000D02*
X157449999Y-97200000D01*
G75*
G02*
X157200000Y-96950001I0J249999D01*
G01*
X157200000Y-96299999D01*
G75*
G02*
X157449999Y-96050000I249999J0D01*
G01*
X158350001Y-96050000D01*
G75*
G02*
X158600000Y-96299999I0J-249999D01*
G01*
X158600000Y-96950001D01*
G75*
G02*
X158350001Y-97200000I-249999J0D01*
G01*
G37*
G36*
G01*
X158350001Y-99250000D02*
X157449999Y-99250000D01*
G75*
G02*
X157200000Y-99000001I0J249999D01*
G01*
X157200000Y-98349999D01*
G75*
G02*
X157449999Y-98100000I249999J0D01*
G01*
X158350001Y-98100000D01*
G75*
G02*
X158600000Y-98349999I0J-249999D01*
G01*
X158600000Y-99000001D01*
G75*
G02*
X158350001Y-99250000I-249999J0D01*
G01*
G37*
G36*
G01*
X140350001Y-95213604D02*
X139713604Y-95850001D01*
G75*
G02*
X139360052Y-95850001I-176776J176776D01*
G01*
X138900431Y-95390380D01*
G75*
G02*
X138900431Y-95036828I176776J176776D01*
G01*
X139536828Y-94400431D01*
G75*
G02*
X139890380Y-94400431I176776J-176776D01*
G01*
X140350001Y-94860052D01*
G75*
G02*
X140350001Y-95213604I-176776J-176776D01*
G01*
G37*
G36*
G01*
X141799569Y-96663172D02*
X141163172Y-97299569D01*
G75*
G02*
X140809620Y-97299569I-176776J176776D01*
G01*
X140349999Y-96839948D01*
G75*
G02*
X140349999Y-96486396I176776J176776D01*
G01*
X140986396Y-95849999D01*
G75*
G02*
X141339948Y-95849999I176776J-176776D01*
G01*
X141799569Y-96309620D01*
G75*
G02*
X141799569Y-96663172I-176776J-176776D01*
G01*
G37*
G36*
G01*
X150300001Y-85613604D02*
X149663604Y-86250001D01*
G75*
G02*
X149310052Y-86250001I-176776J176776D01*
G01*
X148850431Y-85790380D01*
G75*
G02*
X148850431Y-85436828I176776J176776D01*
G01*
X149486828Y-84800431D01*
G75*
G02*
X149840380Y-84800431I176776J-176776D01*
G01*
X150300001Y-85260052D01*
G75*
G02*
X150300001Y-85613604I-176776J-176776D01*
G01*
G37*
G36*
G01*
X151749569Y-87063172D02*
X151113172Y-87699569D01*
G75*
G02*
X150759620Y-87699569I-176776J176776D01*
G01*
X150299999Y-87239948D01*
G75*
G02*
X150299999Y-86886396I176776J176776D01*
G01*
X150936396Y-86249999D01*
G75*
G02*
X151289948Y-86249999I176776J-176776D01*
G01*
X151749569Y-86709620D01*
G75*
G02*
X151749569Y-87063172I-176776J-176776D01*
G01*
G37*
D11*
G36*
X145184835Y-86536128D02*
G01*
X144795926Y-86925037D01*
X143664555Y-85793666D01*
X144053464Y-85404757D01*
X145184835Y-86536128D01*
G37*
G36*
X144619150Y-87101814D02*
G01*
X144230241Y-87490723D01*
X143098870Y-86359352D01*
X143487779Y-85970443D01*
X144619150Y-87101814D01*
G37*
G36*
X144053464Y-87667499D02*
G01*
X143664555Y-88056408D01*
X142533184Y-86925037D01*
X142922093Y-86536128D01*
X144053464Y-87667499D01*
G37*
G36*
X143487779Y-88233184D02*
G01*
X143098870Y-88622093D01*
X141967499Y-87490722D01*
X142356408Y-87101813D01*
X143487779Y-88233184D01*
G37*
G36*
X142922093Y-88798870D02*
G01*
X142533184Y-89187779D01*
X141401813Y-88056408D01*
X141790722Y-87667499D01*
X142922093Y-88798870D01*
G37*
G36*
X142356408Y-89364555D02*
G01*
X141967499Y-89753464D01*
X140836128Y-88622093D01*
X141225037Y-88233184D01*
X142356408Y-89364555D01*
G37*
G36*
X141790723Y-89930241D02*
G01*
X141401814Y-90319150D01*
X140270443Y-89187779D01*
X140659352Y-88798870D01*
X141790723Y-89930241D01*
G37*
G36*
X141225037Y-90495926D02*
G01*
X140836128Y-90884835D01*
X139704757Y-89753464D01*
X140093666Y-89364555D01*
X141225037Y-90495926D01*
G37*
G36*
X140836128Y-91415165D02*
G01*
X141225037Y-91804074D01*
X140093666Y-92935445D01*
X139704757Y-92546536D01*
X140836128Y-91415165D01*
G37*
G36*
X141401814Y-91980850D02*
G01*
X141790723Y-92369759D01*
X140659352Y-93501130D01*
X140270443Y-93112221D01*
X141401814Y-91980850D01*
G37*
G36*
X141967499Y-92546536D02*
G01*
X142356408Y-92935445D01*
X141225037Y-94066816D01*
X140836128Y-93677907D01*
X141967499Y-92546536D01*
G37*
G36*
X142533184Y-93112221D02*
G01*
X142922093Y-93501130D01*
X141790722Y-94632501D01*
X141401813Y-94243592D01*
X142533184Y-93112221D01*
G37*
G36*
X143098870Y-93677907D02*
G01*
X143487779Y-94066816D01*
X142356408Y-95198187D01*
X141967499Y-94809278D01*
X143098870Y-93677907D01*
G37*
G36*
X143664555Y-94243592D02*
G01*
X144053464Y-94632501D01*
X142922093Y-95763872D01*
X142533184Y-95374963D01*
X143664555Y-94243592D01*
G37*
G36*
X144230241Y-94809277D02*
G01*
X144619150Y-95198186D01*
X143487779Y-96329557D01*
X143098870Y-95940648D01*
X144230241Y-94809277D01*
G37*
G36*
X144795926Y-95374963D02*
G01*
X145184835Y-95763872D01*
X144053464Y-96895243D01*
X143664555Y-96506334D01*
X144795926Y-95374963D01*
G37*
G36*
X147235445Y-96506334D02*
G01*
X146846536Y-96895243D01*
X145715165Y-95763872D01*
X146104074Y-95374963D01*
X147235445Y-96506334D01*
G37*
G36*
X147801130Y-95940648D02*
G01*
X147412221Y-96329557D01*
X146280850Y-95198186D01*
X146669759Y-94809277D01*
X147801130Y-95940648D01*
G37*
G36*
X148366816Y-95374963D02*
G01*
X147977907Y-95763872D01*
X146846536Y-94632501D01*
X147235445Y-94243592D01*
X148366816Y-95374963D01*
G37*
G36*
X148932501Y-94809278D02*
G01*
X148543592Y-95198187D01*
X147412221Y-94066816D01*
X147801130Y-93677907D01*
X148932501Y-94809278D01*
G37*
G36*
X149498187Y-94243592D02*
G01*
X149109278Y-94632501D01*
X147977907Y-93501130D01*
X148366816Y-93112221D01*
X149498187Y-94243592D01*
G37*
G36*
X150063872Y-93677907D02*
G01*
X149674963Y-94066816D01*
X148543592Y-92935445D01*
X148932501Y-92546536D01*
X150063872Y-93677907D01*
G37*
G36*
X150629557Y-93112221D02*
G01*
X150240648Y-93501130D01*
X149109277Y-92369759D01*
X149498186Y-91980850D01*
X150629557Y-93112221D01*
G37*
G36*
X151195243Y-92546536D02*
G01*
X150806334Y-92935445D01*
X149674963Y-91804074D01*
X150063872Y-91415165D01*
X151195243Y-92546536D01*
G37*
G36*
X150806334Y-89364555D02*
G01*
X151195243Y-89753464D01*
X150063872Y-90884835D01*
X149674963Y-90495926D01*
X150806334Y-89364555D01*
G37*
G36*
X150240648Y-88798870D02*
G01*
X150629557Y-89187779D01*
X149498186Y-90319150D01*
X149109277Y-89930241D01*
X150240648Y-88798870D01*
G37*
G36*
X149674963Y-88233184D02*
G01*
X150063872Y-88622093D01*
X148932501Y-89753464D01*
X148543592Y-89364555D01*
X149674963Y-88233184D01*
G37*
G36*
X149109278Y-87667499D02*
G01*
X149498187Y-88056408D01*
X148366816Y-89187779D01*
X147977907Y-88798870D01*
X149109278Y-87667499D01*
G37*
G36*
X148543592Y-87101813D02*
G01*
X148932501Y-87490722D01*
X147801130Y-88622093D01*
X147412221Y-88233184D01*
X148543592Y-87101813D01*
G37*
G36*
X147977907Y-86536128D02*
G01*
X148366816Y-86925037D01*
X147235445Y-88056408D01*
X146846536Y-87667499D01*
X147977907Y-86536128D01*
G37*
G36*
X147412221Y-85970443D02*
G01*
X147801130Y-86359352D01*
X146669759Y-87490723D01*
X146280850Y-87101814D01*
X147412221Y-85970443D01*
G37*
G36*
X146846536Y-85404757D02*
G01*
X147235445Y-85793666D01*
X146104074Y-86925037D01*
X145715165Y-86536128D01*
X146846536Y-85404757D01*
G37*
G36*
G01*
X158900000Y-86350001D02*
X158900000Y-85449999D01*
G75*
G02*
X159149999Y-85200000I249999J0D01*
G01*
X159800001Y-85200000D01*
G75*
G02*
X160050000Y-85449999I0J-249999D01*
G01*
X160050000Y-86350001D01*
G75*
G02*
X159800001Y-86600000I-249999J0D01*
G01*
X159149999Y-86600000D01*
G75*
G02*
X158900000Y-86350001I0J249999D01*
G01*
G37*
G36*
G01*
X156850000Y-86350001D02*
X156850000Y-85449999D01*
G75*
G02*
X157099999Y-85200000I249999J0D01*
G01*
X157750001Y-85200000D01*
G75*
G02*
X158000000Y-85449999I0J-249999D01*
G01*
X158000000Y-86350001D01*
G75*
G02*
X157750001Y-86600000I-249999J0D01*
G01*
X157099999Y-86600000D01*
G75*
G02*
X156850000Y-86350001I0J249999D01*
G01*
G37*
G36*
G01*
X158000000Y-89949999D02*
X158000000Y-90850001D01*
G75*
G02*
X157750001Y-91100000I-249999J0D01*
G01*
X157099999Y-91100000D01*
G75*
G02*
X156850000Y-90850001I0J249999D01*
G01*
X156850000Y-89949999D01*
G75*
G02*
X157099999Y-89700000I249999J0D01*
G01*
X157750001Y-89700000D01*
G75*
G02*
X158000000Y-89949999I0J-249999D01*
G01*
G37*
G36*
G01*
X160050000Y-89949999D02*
X160050000Y-90850001D01*
G75*
G02*
X159800001Y-91100000I-249999J0D01*
G01*
X159149999Y-91100000D01*
G75*
G02*
X158900000Y-90850001I0J249999D01*
G01*
X158900000Y-89949999D01*
G75*
G02*
X159149999Y-89700000I249999J0D01*
G01*
X159800001Y-89700000D01*
G75*
G02*
X160050000Y-89949999I0J-249999D01*
G01*
G37*
M02*
