G04 #@! TF.GenerationSoftware,KiCad,Pcbnew,(5.1.6)-1*
G04 #@! TF.CreationDate,2020-11-13T23:12:39+01:00*
G04 #@! TF.ProjectId,AskSin-Analyzer-XS-RPi,41736b53-696e-42d4-916e-616c797a6572,rev?*
G04 #@! TF.SameCoordinates,Original*
G04 #@! TF.FileFunction,Soldermask,Bot*
G04 #@! TF.FilePolarity,Negative*
%FSLAX46Y46*%
G04 Gerber Fmt 4.6, Leading zero omitted, Abs format (unit mm)*
G04 Created by KiCad (PCBNEW (5.1.6)-1) date 2020-11-13 23:12:39*
%MOMM*%
%LPD*%
G01*
G04 APERTURE LIST*
%ADD10R,0.900000X1.200000*%
%ADD11R,1.200000X0.900000*%
%ADD12R,1.900000X1.900000*%
%ADD13R,1.600000X1.200000*%
%ADD14O,2.100000X2.100000*%
%ADD15R,2.100000X2.100000*%
%ADD16C,0.100000*%
G04 APERTURE END LIST*
D10*
X154200000Y-86700000D03*
X154200000Y-85700000D03*
D11*
X144800000Y-84300000D03*
X145850000Y-84300000D03*
D12*
X136700000Y-85050000D03*
D13*
X157700000Y-94450000D03*
X157700000Y-92550000D03*
X159950000Y-93500000D03*
G36*
G01*
X160250000Y-87586956D02*
X160250000Y-88713044D01*
G75*
G02*
X159913044Y-89050000I-336956J0D01*
G01*
X159036956Y-89050000D01*
G75*
G02*
X158700000Y-88713044I0J336956D01*
G01*
X158700000Y-87586956D01*
G75*
G02*
X159036956Y-87250000I336956J0D01*
G01*
X159913044Y-87250000D01*
G75*
G02*
X160250000Y-87586956I0J-336956D01*
G01*
G37*
G36*
G01*
X158200000Y-87586956D02*
X158200000Y-88713044D01*
G75*
G02*
X157863044Y-89050000I-336956J0D01*
G01*
X156986956Y-89050000D01*
G75*
G02*
X156650000Y-88713044I0J336956D01*
G01*
X156650000Y-87586956D01*
G75*
G02*
X156986956Y-87250000I336956J0D01*
G01*
X157863044Y-87250000D01*
G75*
G02*
X158200000Y-87586956I0J-336956D01*
G01*
G37*
D14*
X165540000Y-95760000D03*
X163000000Y-95760000D03*
X165540000Y-93220000D03*
X163000000Y-93220000D03*
X165540000Y-90680000D03*
X163000000Y-90680000D03*
X165540000Y-88140000D03*
X163000000Y-88140000D03*
X165540000Y-85600000D03*
D15*
X163000000Y-85600000D03*
G36*
G01*
X137088044Y-96500000D02*
X135961956Y-96500000D01*
G75*
G02*
X135625000Y-96163044I0J336956D01*
G01*
X135625000Y-95286956D01*
G75*
G02*
X135961956Y-94950000I336956J0D01*
G01*
X137088044Y-94950000D01*
G75*
G02*
X137425000Y-95286956I0J-336956D01*
G01*
X137425000Y-96163044D01*
G75*
G02*
X137088044Y-96500000I-336956J0D01*
G01*
G37*
G36*
G01*
X137088044Y-98550000D02*
X135961956Y-98550000D01*
G75*
G02*
X135625000Y-98213044I0J336956D01*
G01*
X135625000Y-97336956D01*
G75*
G02*
X135961956Y-97000000I336956J0D01*
G01*
X137088044Y-97000000D01*
G75*
G02*
X137425000Y-97336956I0J-336956D01*
G01*
X137425000Y-98213044D01*
G75*
G02*
X137088044Y-98550000I-336956J0D01*
G01*
G37*
G36*
G01*
X140125092Y-86078644D02*
X140921356Y-86874908D01*
G75*
G02*
X140921356Y-87351436I-238264J-238264D01*
G01*
X140301868Y-87970924D01*
G75*
G02*
X139825340Y-87970924I-238264J238264D01*
G01*
X139029076Y-87174660D01*
G75*
G02*
X139029076Y-86698132I238264J238264D01*
G01*
X139648564Y-86078644D01*
G75*
G02*
X140125092Y-86078644I238264J-238264D01*
G01*
G37*
G36*
G01*
X141574660Y-84629076D02*
X142370924Y-85425340D01*
G75*
G02*
X142370924Y-85901868I-238264J-238264D01*
G01*
X141751436Y-86521356D01*
G75*
G02*
X141274908Y-86521356I-238264J238264D01*
G01*
X140478644Y-85725092D01*
G75*
G02*
X140478644Y-85248564I238264J238264D01*
G01*
X141098132Y-84629076D01*
G75*
G02*
X141574660Y-84629076I238264J-238264D01*
G01*
G37*
G36*
G01*
X158463044Y-97400000D02*
X157336956Y-97400000D01*
G75*
G02*
X157000000Y-97063044I0J336956D01*
G01*
X157000000Y-96186956D01*
G75*
G02*
X157336956Y-95850000I336956J0D01*
G01*
X158463044Y-95850000D01*
G75*
G02*
X158800000Y-96186956I0J-336956D01*
G01*
X158800000Y-97063044D01*
G75*
G02*
X158463044Y-97400000I-336956J0D01*
G01*
G37*
G36*
G01*
X158463044Y-99450000D02*
X157336956Y-99450000D01*
G75*
G02*
X157000000Y-99113044I0J336956D01*
G01*
X157000000Y-98236956D01*
G75*
G02*
X157336956Y-97900000I336956J0D01*
G01*
X158463044Y-97900000D01*
G75*
G02*
X158800000Y-98236956I0J-336956D01*
G01*
X158800000Y-99113044D01*
G75*
G02*
X158463044Y-99450000I-336956J0D01*
G01*
G37*
G36*
G01*
X140571356Y-95275092D02*
X139775092Y-96071356D01*
G75*
G02*
X139298564Y-96071356I-238264J238264D01*
G01*
X138679076Y-95451868D01*
G75*
G02*
X138679076Y-94975340I238264J238264D01*
G01*
X139475340Y-94179076D01*
G75*
G02*
X139951868Y-94179076I238264J-238264D01*
G01*
X140571356Y-94798564D01*
G75*
G02*
X140571356Y-95275092I-238264J-238264D01*
G01*
G37*
G36*
G01*
X142020924Y-96724660D02*
X141224660Y-97520924D01*
G75*
G02*
X140748132Y-97520924I-238264J238264D01*
G01*
X140128644Y-96901436D01*
G75*
G02*
X140128644Y-96424908I238264J238264D01*
G01*
X140924908Y-95628644D01*
G75*
G02*
X141401436Y-95628644I238264J-238264D01*
G01*
X142020924Y-96248132D01*
G75*
G02*
X142020924Y-96724660I-238264J-238264D01*
G01*
G37*
G36*
G01*
X150521356Y-85675092D02*
X149725092Y-86471356D01*
G75*
G02*
X149248564Y-86471356I-238264J238264D01*
G01*
X148629076Y-85851868D01*
G75*
G02*
X148629076Y-85375340I238264J238264D01*
G01*
X149425340Y-84579076D01*
G75*
G02*
X149901868Y-84579076I238264J-238264D01*
G01*
X150521356Y-85198564D01*
G75*
G02*
X150521356Y-85675092I-238264J-238264D01*
G01*
G37*
G36*
G01*
X151970924Y-87124660D02*
X151174660Y-87920924D01*
G75*
G02*
X150698132Y-87920924I-238264J238264D01*
G01*
X150078644Y-87301436D01*
G75*
G02*
X150078644Y-86824908I238264J238264D01*
G01*
X150874908Y-86028644D01*
G75*
G02*
X151351436Y-86028644I238264J-238264D01*
G01*
X151970924Y-86648132D01*
G75*
G02*
X151970924Y-87124660I-238264J-238264D01*
G01*
G37*
D16*
G36*
X145467678Y-86536128D02*
G01*
X144795926Y-87207880D01*
X143381712Y-85793666D01*
X144053464Y-85121914D01*
X145467678Y-86536128D01*
G37*
G36*
X144901993Y-87101814D02*
G01*
X144230241Y-87773566D01*
X142816027Y-86359352D01*
X143487779Y-85687600D01*
X144901993Y-87101814D01*
G37*
G36*
X144336307Y-87667499D02*
G01*
X143664555Y-88339251D01*
X142250341Y-86925037D01*
X142922093Y-86253285D01*
X144336307Y-87667499D01*
G37*
G36*
X143770622Y-88233184D02*
G01*
X143098870Y-88904936D01*
X141684656Y-87490722D01*
X142356408Y-86818970D01*
X143770622Y-88233184D01*
G37*
G36*
X143204936Y-88798870D02*
G01*
X142533184Y-89470622D01*
X141118970Y-88056408D01*
X141790722Y-87384656D01*
X143204936Y-88798870D01*
G37*
G36*
X142639251Y-89364555D02*
G01*
X141967499Y-90036307D01*
X140553285Y-88622093D01*
X141225037Y-87950341D01*
X142639251Y-89364555D01*
G37*
G36*
X142073566Y-89930241D02*
G01*
X141401814Y-90601993D01*
X139987600Y-89187779D01*
X140659352Y-88516027D01*
X142073566Y-89930241D01*
G37*
G36*
X141507880Y-90495926D02*
G01*
X140836128Y-91167678D01*
X139421914Y-89753464D01*
X140093666Y-89081712D01*
X141507880Y-90495926D01*
G37*
G36*
X140836128Y-91132322D02*
G01*
X141507880Y-91804074D01*
X140093666Y-93218288D01*
X139421914Y-92546536D01*
X140836128Y-91132322D01*
G37*
G36*
X141401814Y-91698007D02*
G01*
X142073566Y-92369759D01*
X140659352Y-93783973D01*
X139987600Y-93112221D01*
X141401814Y-91698007D01*
G37*
G36*
X141967499Y-92263693D02*
G01*
X142639251Y-92935445D01*
X141225037Y-94349659D01*
X140553285Y-93677907D01*
X141967499Y-92263693D01*
G37*
G36*
X142533184Y-92829378D02*
G01*
X143204936Y-93501130D01*
X141790722Y-94915344D01*
X141118970Y-94243592D01*
X142533184Y-92829378D01*
G37*
G36*
X143098870Y-93395064D02*
G01*
X143770622Y-94066816D01*
X142356408Y-95481030D01*
X141684656Y-94809278D01*
X143098870Y-93395064D01*
G37*
G36*
X143664555Y-93960749D02*
G01*
X144336307Y-94632501D01*
X142922093Y-96046715D01*
X142250341Y-95374963D01*
X143664555Y-93960749D01*
G37*
G36*
X144230241Y-94526434D02*
G01*
X144901993Y-95198186D01*
X143487779Y-96612400D01*
X142816027Y-95940648D01*
X144230241Y-94526434D01*
G37*
G36*
X144795926Y-95092120D02*
G01*
X145467678Y-95763872D01*
X144053464Y-97178086D01*
X143381712Y-96506334D01*
X144795926Y-95092120D01*
G37*
G36*
X147518288Y-96506334D02*
G01*
X146846536Y-97178086D01*
X145432322Y-95763872D01*
X146104074Y-95092120D01*
X147518288Y-96506334D01*
G37*
G36*
X148083973Y-95940648D02*
G01*
X147412221Y-96612400D01*
X145998007Y-95198186D01*
X146669759Y-94526434D01*
X148083973Y-95940648D01*
G37*
G36*
X148649659Y-95374963D02*
G01*
X147977907Y-96046715D01*
X146563693Y-94632501D01*
X147235445Y-93960749D01*
X148649659Y-95374963D01*
G37*
G36*
X149215344Y-94809278D02*
G01*
X148543592Y-95481030D01*
X147129378Y-94066816D01*
X147801130Y-93395064D01*
X149215344Y-94809278D01*
G37*
G36*
X149781030Y-94243592D02*
G01*
X149109278Y-94915344D01*
X147695064Y-93501130D01*
X148366816Y-92829378D01*
X149781030Y-94243592D01*
G37*
G36*
X150346715Y-93677907D02*
G01*
X149674963Y-94349659D01*
X148260749Y-92935445D01*
X148932501Y-92263693D01*
X150346715Y-93677907D01*
G37*
G36*
X150912400Y-93112221D02*
G01*
X150240648Y-93783973D01*
X148826434Y-92369759D01*
X149498186Y-91698007D01*
X150912400Y-93112221D01*
G37*
G36*
X151478086Y-92546536D02*
G01*
X150806334Y-93218288D01*
X149392120Y-91804074D01*
X150063872Y-91132322D01*
X151478086Y-92546536D01*
G37*
G36*
X150806334Y-89081712D02*
G01*
X151478086Y-89753464D01*
X150063872Y-91167678D01*
X149392120Y-90495926D01*
X150806334Y-89081712D01*
G37*
G36*
X150240648Y-88516027D02*
G01*
X150912400Y-89187779D01*
X149498186Y-90601993D01*
X148826434Y-89930241D01*
X150240648Y-88516027D01*
G37*
G36*
X149674963Y-87950341D02*
G01*
X150346715Y-88622093D01*
X148932501Y-90036307D01*
X148260749Y-89364555D01*
X149674963Y-87950341D01*
G37*
G36*
X149109278Y-87384656D02*
G01*
X149781030Y-88056408D01*
X148366816Y-89470622D01*
X147695064Y-88798870D01*
X149109278Y-87384656D01*
G37*
G36*
X148543592Y-86818970D02*
G01*
X149215344Y-87490722D01*
X147801130Y-88904936D01*
X147129378Y-88233184D01*
X148543592Y-86818970D01*
G37*
G36*
X147977907Y-86253285D02*
G01*
X148649659Y-86925037D01*
X147235445Y-88339251D01*
X146563693Y-87667499D01*
X147977907Y-86253285D01*
G37*
G36*
X147412221Y-85687600D02*
G01*
X148083973Y-86359352D01*
X146669759Y-87773566D01*
X145998007Y-87101814D01*
X147412221Y-85687600D01*
G37*
G36*
X146846536Y-85121914D02*
G01*
X147518288Y-85793666D01*
X146104074Y-87207880D01*
X145432322Y-86536128D01*
X146846536Y-85121914D01*
G37*
G36*
G01*
X158700000Y-86463044D02*
X158700000Y-85336956D01*
G75*
G02*
X159036956Y-85000000I336956J0D01*
G01*
X159913044Y-85000000D01*
G75*
G02*
X160250000Y-85336956I0J-336956D01*
G01*
X160250000Y-86463044D01*
G75*
G02*
X159913044Y-86800000I-336956J0D01*
G01*
X159036956Y-86800000D01*
G75*
G02*
X158700000Y-86463044I0J336956D01*
G01*
G37*
G36*
G01*
X156650000Y-86463044D02*
X156650000Y-85336956D01*
G75*
G02*
X156986956Y-85000000I336956J0D01*
G01*
X157863044Y-85000000D01*
G75*
G02*
X158200000Y-85336956I0J-336956D01*
G01*
X158200000Y-86463044D01*
G75*
G02*
X157863044Y-86800000I-336956J0D01*
G01*
X156986956Y-86800000D01*
G75*
G02*
X156650000Y-86463044I0J336956D01*
G01*
G37*
G36*
G01*
X158200000Y-89836956D02*
X158200000Y-90963044D01*
G75*
G02*
X157863044Y-91300000I-336956J0D01*
G01*
X156986956Y-91300000D01*
G75*
G02*
X156650000Y-90963044I0J336956D01*
G01*
X156650000Y-89836956D01*
G75*
G02*
X156986956Y-89500000I336956J0D01*
G01*
X157863044Y-89500000D01*
G75*
G02*
X158200000Y-89836956I0J-336956D01*
G01*
G37*
G36*
G01*
X160250000Y-89836956D02*
X160250000Y-90963044D01*
G75*
G02*
X159913044Y-91300000I-336956J0D01*
G01*
X159036956Y-91300000D01*
G75*
G02*
X158700000Y-90963044I0J336956D01*
G01*
X158700000Y-89836956D01*
G75*
G02*
X159036956Y-89500000I336956J0D01*
G01*
X159913044Y-89500000D01*
G75*
G02*
X160250000Y-89836956I0J-336956D01*
G01*
G37*
M02*
