G04 #@! TF.GenerationSoftware,KiCad,Pcbnew,(5.1.6)-1*
G04 #@! TF.CreationDate,2020-11-13T23:12:39+01:00*
G04 #@! TF.ProjectId,AskSin-Analyzer-XS-RPi,41736b53-696e-42d4-916e-616c797a6572,rev?*
G04 #@! TF.SameCoordinates,Original*
G04 #@! TF.FileFunction,Copper,L1,Top*
G04 #@! TF.FilePolarity,Positive*
%FSLAX46Y46*%
G04 Gerber Fmt 4.6, Leading zero omitted, Abs format (unit mm)*
G04 Created by KiCad (PCBNEW (5.1.6)-1) date 2020-11-13 23:12:39*
%MOMM*%
%LPD*%
G01*
G04 APERTURE LIST*
G04 #@! TA.AperFunction,SMDPad,CuDef*
%ADD10R,2.524000X1.200000*%
G04 #@! TD*
G04 #@! TA.AperFunction,ComponentPad*
%ADD11O,1.700000X1.700000*%
G04 #@! TD*
G04 #@! TA.AperFunction,ComponentPad*
%ADD12R,1.700000X1.700000*%
G04 #@! TD*
G04 #@! TA.AperFunction,ViaPad*
%ADD13C,0.600000*%
G04 #@! TD*
G04 #@! TA.AperFunction,ViaPad*
%ADD14C,0.800000*%
G04 #@! TD*
G04 #@! TA.AperFunction,Conductor*
%ADD15C,0.250000*%
G04 #@! TD*
G04 #@! TA.AperFunction,Conductor*
%ADD16C,0.500000*%
G04 #@! TD*
G04 #@! TA.AperFunction,Conductor*
%ADD17C,0.300000*%
G04 #@! TD*
G04 #@! TA.AperFunction,Conductor*
%ADD18C,0.254000*%
G04 #@! TD*
G04 APERTURE END LIST*
D10*
X136025000Y-88650000D03*
X136025000Y-92650000D03*
X155025000Y-84650000D03*
X155025000Y-86650000D03*
X155025000Y-88650000D03*
X155025000Y-90650000D03*
X155025000Y-92650000D03*
X155025000Y-94650000D03*
X155025000Y-96650000D03*
X155025000Y-98650000D03*
D11*
X165540000Y-95760000D03*
X163000000Y-95760000D03*
X165540000Y-93220000D03*
X163000000Y-93220000D03*
X165540000Y-90680000D03*
X163000000Y-90680000D03*
X165540000Y-88140000D03*
X163000000Y-88140000D03*
X165540000Y-85600000D03*
D12*
X163000000Y-85600000D03*
G04 #@! TA.AperFunction,SMDPad,CuDef*
G36*
G01*
X157649999Y-92150000D02*
X158550001Y-92150000D01*
G75*
G02*
X158800000Y-92399999I0J-249999D01*
G01*
X158800000Y-93050001D01*
G75*
G02*
X158550001Y-93300000I-249999J0D01*
G01*
X157649999Y-93300000D01*
G75*
G02*
X157400000Y-93050001I0J249999D01*
G01*
X157400000Y-92399999D01*
G75*
G02*
X157649999Y-92150000I249999J0D01*
G01*
G37*
G04 #@! TD.AperFunction*
G04 #@! TA.AperFunction,SMDPad,CuDef*
G36*
G01*
X157649999Y-90100000D02*
X158550001Y-90100000D01*
G75*
G02*
X158800000Y-90349999I0J-249999D01*
G01*
X158800000Y-91000001D01*
G75*
G02*
X158550001Y-91250000I-249999J0D01*
G01*
X157649999Y-91250000D01*
G75*
G02*
X157400000Y-91000001I0J249999D01*
G01*
X157400000Y-90349999D01*
G75*
G02*
X157649999Y-90100000I249999J0D01*
G01*
G37*
G04 #@! TD.AperFunction*
D13*
X157750000Y-90500000D03*
X157850000Y-94450000D03*
X159500000Y-85950000D03*
X157900000Y-96600000D03*
X149775216Y-85325216D03*
X139490900Y-94834532D03*
X157900000Y-98800000D03*
X152800000Y-97350000D03*
X145917500Y-91392500D03*
X152100000Y-98800000D03*
X145200000Y-91975000D03*
X150775000Y-98475000D03*
X145500000Y-85650000D03*
X152500000Y-94650000D03*
X152925000Y-92350000D03*
X150750000Y-94950000D03*
X152000000Y-93200000D03*
X139950000Y-87000000D03*
X152907500Y-90267500D03*
X151200000Y-91200000D03*
X145700000Y-88050000D03*
X141500000Y-85450000D03*
D14*
X158650000Y-84250000D03*
D15*
X155075000Y-96600000D02*
X155025000Y-96650000D01*
X157900000Y-96600000D02*
X155075000Y-96600000D01*
D16*
X157900000Y-96600000D02*
X153250000Y-96600000D01*
X153250000Y-96600000D02*
X152750000Y-96100000D01*
D15*
X155325000Y-98350000D02*
X155025000Y-98650000D01*
X155025000Y-98650000D02*
X155025000Y-98650000D01*
D17*
X155025000Y-98650000D02*
X154300000Y-98650000D01*
X155025000Y-98650000D02*
X157325000Y-98650000D01*
D15*
X154100000Y-98650000D02*
X152800000Y-97350000D01*
X155025000Y-98650000D02*
X154100000Y-98650000D01*
X152800000Y-97350000D02*
X152800000Y-97350000D01*
D17*
X157750000Y-98650000D02*
X157900000Y-98800000D01*
X155025000Y-98650000D02*
X157750000Y-98650000D01*
D15*
X146300009Y-95800011D02*
X146300009Y-91775009D01*
X146300009Y-91775009D02*
X145925000Y-91400000D01*
X148312499Y-97812501D02*
X146300009Y-95800011D01*
X151112501Y-97812501D02*
X151400000Y-98100000D01*
X148312499Y-97812501D02*
X151112501Y-97812501D01*
X151400000Y-98100000D02*
X152100000Y-98800000D01*
X152100000Y-98800000D02*
X152100000Y-98800000D01*
X145200000Y-92399264D02*
X145200000Y-91975000D01*
X145850000Y-93049264D02*
X145200000Y-92399264D01*
X150775000Y-98475000D02*
X150775000Y-98475000D01*
X145850000Y-95986412D02*
X145850000Y-93049264D01*
X148338588Y-98475000D02*
X145850000Y-95986412D01*
X145200000Y-91975000D02*
X145200000Y-91975000D01*
X150775000Y-98475000D02*
X148338588Y-98475000D01*
X155025000Y-86650000D02*
X147325000Y-86650000D01*
X155025000Y-86650000D02*
X147350000Y-86650000D01*
X146500000Y-86650000D02*
X145500000Y-85650000D01*
X147350000Y-86650000D02*
X146500000Y-86650000D01*
X145500000Y-85650000D02*
X145500000Y-85650000D01*
X155475010Y-92463600D02*
X155343205Y-92331795D01*
X155475010Y-92836400D02*
X155475010Y-92463600D01*
X154500000Y-92650000D02*
X153225000Y-93925000D01*
X155025000Y-92650000D02*
X154500000Y-92650000D01*
X152500000Y-94650000D02*
X152500000Y-94650000D01*
X153225000Y-93925000D02*
X153425001Y-93724999D01*
X152500000Y-94650000D02*
X153225000Y-93925000D01*
X155025000Y-90650000D02*
X154363000Y-90650000D01*
X155025000Y-90650000D02*
X153950000Y-90650000D01*
X152925000Y-91675000D02*
X152925000Y-92350000D01*
X153950000Y-90650000D02*
X152925000Y-91675000D01*
X152925000Y-92350000D02*
X152925000Y-92350000D01*
X155025000Y-94650000D02*
X153513000Y-94650000D01*
X153131500Y-95031500D02*
X153006500Y-95156500D01*
X153513000Y-94650000D02*
X153131500Y-95031500D01*
X151400000Y-94950000D02*
X150750000Y-94950000D01*
X151725001Y-95275001D02*
X151400000Y-94950000D01*
X152887999Y-95275001D02*
X153513000Y-94650000D01*
X152174999Y-95275001D02*
X152887999Y-95275001D01*
X152174999Y-95275001D02*
X151725001Y-95275001D01*
X152800001Y-95275001D02*
X152174999Y-95275001D01*
X150750000Y-94950000D02*
X150750000Y-94950000D01*
X155850000Y-84650000D02*
X155025000Y-84650000D01*
X156750000Y-85550000D02*
X155850000Y-84650000D01*
X156750000Y-87372002D02*
X156750000Y-85550000D01*
X152000000Y-92100000D02*
X152249999Y-91850001D01*
X156472002Y-87650000D02*
X156750000Y-87372002D01*
X152000000Y-93225000D02*
X152000000Y-93225000D01*
X152249999Y-91850001D02*
X152249999Y-88977999D01*
X152249999Y-88977999D02*
X153577998Y-87650000D01*
X153577998Y-87650000D02*
X156472002Y-87650000D01*
X152000000Y-93225000D02*
X152000000Y-93200000D01*
X152000000Y-93200000D02*
X152000000Y-92100000D01*
X144794295Y-88855705D02*
X146655705Y-88855705D01*
X146655705Y-88855705D02*
X149000000Y-91200000D01*
X150850000Y-91200000D02*
X149000000Y-91200000D01*
X149000000Y-91200000D02*
X151200000Y-91200000D01*
X152875000Y-90300000D02*
X152907500Y-90267500D01*
X156547001Y-89724999D02*
X156800000Y-89977998D01*
X153450001Y-89724999D02*
X156547001Y-89724999D01*
X156800000Y-91425000D02*
X158100000Y-92725000D01*
X156800000Y-89977998D02*
X156800000Y-91425000D01*
X139950000Y-87000000D02*
X139950000Y-87000000D01*
X144794295Y-88855705D02*
X142994295Y-87055705D01*
X142938590Y-87000000D02*
X142994295Y-87055705D01*
X139950000Y-87000000D02*
X142938590Y-87000000D01*
X152907500Y-90267500D02*
X153450001Y-89724999D01*
X151200000Y-91200000D02*
X151200000Y-91200000D01*
X145700000Y-88050000D02*
X145700000Y-88050000D01*
X142025000Y-85450000D02*
X142537500Y-85962500D01*
X144625000Y-88050000D02*
X142537500Y-85962500D01*
X141500000Y-85450000D02*
X141500000Y-85450000D01*
X145700000Y-88050000D02*
X144625000Y-88050000D01*
X141500000Y-85450000D02*
X142025000Y-85450000D01*
X163000000Y-88140000D02*
X159110000Y-84250000D01*
X159110000Y-84250000D02*
X158650000Y-84250000D01*
X158650000Y-84250000D02*
X158650000Y-84250000D01*
D18*
G36*
X153289489Y-83991158D02*
G01*
X153283693Y-84050000D01*
X153283693Y-85250000D01*
X153292903Y-85343508D01*
X153320178Y-85433423D01*
X153364471Y-85516289D01*
X153424079Y-85588921D01*
X153496711Y-85648529D01*
X153499463Y-85650000D01*
X153496711Y-85651471D01*
X153424079Y-85711079D01*
X153364471Y-85783711D01*
X153320178Y-85866577D01*
X153292903Y-85956492D01*
X153283890Y-86048000D01*
X146749356Y-86048000D01*
X146277000Y-85575645D01*
X146277000Y-85573472D01*
X146247141Y-85423357D01*
X146188569Y-85281952D01*
X146103536Y-85154691D01*
X145995309Y-85046464D01*
X145868048Y-84961431D01*
X145726643Y-84902859D01*
X145576528Y-84873000D01*
X145423472Y-84873000D01*
X145273357Y-84902859D01*
X145131952Y-84961431D01*
X145004691Y-85046464D01*
X144896464Y-85154691D01*
X144811431Y-85281952D01*
X144752859Y-85423357D01*
X144723000Y-85573472D01*
X144723000Y-85726528D01*
X144752859Y-85876643D01*
X144811431Y-86018048D01*
X144896464Y-86145309D01*
X145004691Y-86253536D01*
X145131952Y-86338569D01*
X145273357Y-86397141D01*
X145423472Y-86427000D01*
X145425645Y-86427000D01*
X146053416Y-87054771D01*
X146072263Y-87077737D01*
X146095228Y-87096584D01*
X146163928Y-87152966D01*
X146268510Y-87208866D01*
X146381987Y-87243289D01*
X146393182Y-87244391D01*
X146470434Y-87252000D01*
X146470441Y-87252000D01*
X146500000Y-87254911D01*
X146529559Y-87252000D01*
X153124641Y-87252000D01*
X151845228Y-88531415D01*
X151822263Y-88550262D01*
X151803416Y-88573227D01*
X151803415Y-88573228D01*
X151747034Y-88641928D01*
X151691133Y-88746510D01*
X151656711Y-88859987D01*
X151645088Y-88977999D01*
X151648000Y-89007565D01*
X151647999Y-90564853D01*
X151568048Y-90511431D01*
X151426643Y-90452859D01*
X151276528Y-90423000D01*
X151123472Y-90423000D01*
X150973357Y-90452859D01*
X150831952Y-90511431D01*
X150704691Y-90596464D01*
X150703155Y-90598000D01*
X149249356Y-90598000D01*
X147102294Y-88450939D01*
X147083442Y-88427968D01*
X146991776Y-88352739D01*
X146887195Y-88296839D01*
X146773717Y-88262416D01*
X146685271Y-88253705D01*
X146685261Y-88253705D01*
X146655705Y-88250794D01*
X146626149Y-88253705D01*
X146451704Y-88253705D01*
X146477000Y-88126528D01*
X146477000Y-87973472D01*
X146447141Y-87823357D01*
X146388569Y-87681952D01*
X146303536Y-87554691D01*
X146195309Y-87446464D01*
X146068048Y-87361431D01*
X145926643Y-87302859D01*
X145776528Y-87273000D01*
X145623472Y-87273000D01*
X145473357Y-87302859D01*
X145331952Y-87361431D01*
X145204691Y-87446464D01*
X145203155Y-87448000D01*
X144874356Y-87448000D01*
X142984093Y-85557738D01*
X142984084Y-85557727D01*
X142471588Y-85045233D01*
X142452737Y-85022263D01*
X142361071Y-84947034D01*
X142256490Y-84891134D01*
X142143012Y-84856711D01*
X142054566Y-84848000D01*
X142054556Y-84848000D01*
X142025000Y-84845089D01*
X141996719Y-84847874D01*
X141995309Y-84846464D01*
X141868048Y-84761431D01*
X141726643Y-84702859D01*
X141576528Y-84673000D01*
X141423472Y-84673000D01*
X141273357Y-84702859D01*
X141131952Y-84761431D01*
X141004691Y-84846464D01*
X140896464Y-84954691D01*
X140811431Y-85081952D01*
X140752859Y-85223357D01*
X140723000Y-85373472D01*
X140723000Y-85526528D01*
X140752859Y-85676643D01*
X140811431Y-85818048D01*
X140896464Y-85945309D01*
X141004691Y-86053536D01*
X141131952Y-86138569D01*
X141273357Y-86197141D01*
X141423472Y-86227000D01*
X141576528Y-86227000D01*
X141726643Y-86197141D01*
X141863922Y-86140278D01*
X142121643Y-86398000D01*
X140446845Y-86398000D01*
X140445309Y-86396464D01*
X140318048Y-86311431D01*
X140176643Y-86252859D01*
X140026528Y-86223000D01*
X139873472Y-86223000D01*
X139723357Y-86252859D01*
X139581952Y-86311431D01*
X139454691Y-86396464D01*
X139346464Y-86504691D01*
X139261431Y-86631952D01*
X139202859Y-86773357D01*
X139173000Y-86923472D01*
X139173000Y-87076528D01*
X139202859Y-87226643D01*
X139261431Y-87368048D01*
X139346464Y-87495309D01*
X139454691Y-87603536D01*
X139581952Y-87688569D01*
X139723357Y-87747141D01*
X139873472Y-87777000D01*
X140026528Y-87777000D01*
X140176643Y-87747141D01*
X140318048Y-87688569D01*
X140445309Y-87603536D01*
X140446845Y-87602000D01*
X142689235Y-87602000D01*
X144347715Y-89260482D01*
X144366558Y-89283442D01*
X144389518Y-89302285D01*
X144389522Y-89302289D01*
X144439748Y-89343508D01*
X144458224Y-89358671D01*
X144562805Y-89414571D01*
X144676283Y-89448994D01*
X144764729Y-89457705D01*
X144764738Y-89457705D01*
X144794294Y-89460616D01*
X144823851Y-89457705D01*
X146406350Y-89457705D01*
X148553416Y-91604772D01*
X148572263Y-91627737D01*
X148663929Y-91702966D01*
X148768510Y-91758866D01*
X148881988Y-91793289D01*
X148970434Y-91802000D01*
X148970443Y-91802000D01*
X149000000Y-91804911D01*
X149029556Y-91802000D01*
X150703155Y-91802000D01*
X150704691Y-91803536D01*
X150831952Y-91888569D01*
X150973357Y-91947141D01*
X151123472Y-91977000D01*
X151276528Y-91977000D01*
X151416681Y-91949122D01*
X151406712Y-91981988D01*
X151395089Y-92100000D01*
X151398001Y-92129566D01*
X151398000Y-92703155D01*
X151396464Y-92704691D01*
X151311431Y-92831952D01*
X151252859Y-92973357D01*
X151223000Y-93123472D01*
X151223000Y-93276528D01*
X151252859Y-93426643D01*
X151311431Y-93568048D01*
X151396464Y-93695309D01*
X151504691Y-93803536D01*
X151631952Y-93888569D01*
X151773357Y-93947141D01*
X151923472Y-93977000D01*
X152076528Y-93977000D01*
X152122267Y-93967902D01*
X152004691Y-94046464D01*
X151896464Y-94154691D01*
X151811431Y-94281952D01*
X151752859Y-94423357D01*
X151746454Y-94455556D01*
X151736071Y-94447034D01*
X151631490Y-94391134D01*
X151518012Y-94356711D01*
X151429566Y-94348000D01*
X151429556Y-94348000D01*
X151400000Y-94345089D01*
X151370444Y-94348000D01*
X151246845Y-94348000D01*
X151245309Y-94346464D01*
X151118048Y-94261431D01*
X150976643Y-94202859D01*
X150826528Y-94173000D01*
X150673472Y-94173000D01*
X150523357Y-94202859D01*
X150381952Y-94261431D01*
X150254691Y-94346464D01*
X150146464Y-94454691D01*
X150061431Y-94581952D01*
X150002859Y-94723357D01*
X149973000Y-94873472D01*
X149973000Y-95026528D01*
X150002859Y-95176643D01*
X150061431Y-95318048D01*
X150146464Y-95445309D01*
X150254691Y-95553536D01*
X150381952Y-95638569D01*
X150523357Y-95697141D01*
X150673472Y-95727000D01*
X150826528Y-95727000D01*
X150976643Y-95697141D01*
X151118048Y-95638569D01*
X151189483Y-95590838D01*
X151278412Y-95679767D01*
X151297264Y-95702738D01*
X151388930Y-95777967D01*
X151493511Y-95833867D01*
X151606989Y-95868290D01*
X151695435Y-95877001D01*
X151695444Y-95877001D01*
X151725001Y-95879912D01*
X151754557Y-95877001D01*
X152858443Y-95877001D01*
X152887999Y-95879912D01*
X152917555Y-95877001D01*
X152917565Y-95877001D01*
X153006011Y-95868290D01*
X153119489Y-95833867D01*
X153224070Y-95777967D01*
X153315736Y-95702738D01*
X153334588Y-95679767D01*
X153424823Y-95589532D01*
X153459095Y-95617658D01*
X153388552Y-95675552D01*
X153322695Y-95755798D01*
X153273760Y-95847350D01*
X153243625Y-95946690D01*
X153233450Y-96050000D01*
X153236000Y-96445250D01*
X153367750Y-96577000D01*
X154952000Y-96577000D01*
X154952000Y-96557000D01*
X155098000Y-96557000D01*
X155098000Y-96577000D01*
X156682250Y-96577000D01*
X156814000Y-96445250D01*
X156816550Y-96050000D01*
X156816276Y-96047209D01*
X161653285Y-96047209D01*
X161720680Y-96269391D01*
X161844639Y-96509186D01*
X162012998Y-96720190D01*
X162219287Y-96894295D01*
X162455578Y-97024809D01*
X162712791Y-97106718D01*
X162927000Y-97003317D01*
X162927000Y-95833000D01*
X161756892Y-95833000D01*
X161653285Y-96047209D01*
X156816276Y-96047209D01*
X156806375Y-95946690D01*
X156776240Y-95847350D01*
X156727305Y-95755798D01*
X156661448Y-95675552D01*
X156590905Y-95617658D01*
X156625921Y-95588921D01*
X156685529Y-95516289D01*
X156729822Y-95433423D01*
X156757097Y-95343508D01*
X156766307Y-95250000D01*
X156766307Y-94050000D01*
X156757097Y-93956492D01*
X156729822Y-93866577D01*
X156685529Y-93783711D01*
X156625921Y-93711079D01*
X156553289Y-93651471D01*
X156550537Y-93650000D01*
X156553289Y-93648529D01*
X156625921Y-93588921D01*
X156685529Y-93516289D01*
X156729822Y-93433423D01*
X156757097Y-93343508D01*
X156766307Y-93250000D01*
X156766307Y-92242662D01*
X156920958Y-92397313D01*
X156920693Y-92399999D01*
X156920693Y-93050001D01*
X156934706Y-93192282D01*
X156976208Y-93329094D01*
X157043603Y-93455182D01*
X157134302Y-93565698D01*
X157244818Y-93656397D01*
X157370906Y-93723792D01*
X157507718Y-93765294D01*
X157649999Y-93779307D01*
X158550001Y-93779307D01*
X158692282Y-93765294D01*
X158829094Y-93723792D01*
X158955182Y-93656397D01*
X159065698Y-93565698D01*
X159156397Y-93455182D01*
X159223792Y-93329094D01*
X159265294Y-93192282D01*
X159279307Y-93050001D01*
X159279307Y-92399999D01*
X159265294Y-92257718D01*
X159223792Y-92120906D01*
X159156397Y-91994818D01*
X159065698Y-91884302D01*
X158955182Y-91793603D01*
X158907485Y-91768109D01*
X159002650Y-91739240D01*
X159094202Y-91690305D01*
X159174448Y-91624448D01*
X159240305Y-91544202D01*
X159289240Y-91452650D01*
X159319375Y-91353310D01*
X159329550Y-91250000D01*
X159327000Y-90879750D01*
X159195250Y-90748000D01*
X158173000Y-90748000D01*
X158173000Y-90768000D01*
X158027000Y-90768000D01*
X158027000Y-90748000D01*
X158007000Y-90748000D01*
X158007000Y-90602000D01*
X158027000Y-90602000D01*
X158027000Y-89704750D01*
X158173000Y-89704750D01*
X158173000Y-90602000D01*
X159195250Y-90602000D01*
X159327000Y-90470250D01*
X159329550Y-90100000D01*
X159319375Y-89996690D01*
X159289240Y-89897350D01*
X159240305Y-89805798D01*
X159174448Y-89725552D01*
X159094202Y-89659695D01*
X159002650Y-89610760D01*
X158903310Y-89580625D01*
X158800000Y-89570450D01*
X158304750Y-89573000D01*
X158173000Y-89704750D01*
X158027000Y-89704750D01*
X157895250Y-89573000D01*
X157400000Y-89570450D01*
X157296690Y-89580625D01*
X157261434Y-89591320D01*
X157227737Y-89550261D01*
X157204767Y-89531410D01*
X156993590Y-89320233D01*
X156974738Y-89297262D01*
X156883072Y-89222033D01*
X156778491Y-89166133D01*
X156766307Y-89162437D01*
X156766307Y-88175291D01*
X156808073Y-88152966D01*
X156899739Y-88077737D01*
X156918591Y-88054766D01*
X157154767Y-87818590D01*
X157177737Y-87799739D01*
X157252966Y-87708073D01*
X157308866Y-87603492D01*
X157316022Y-87579903D01*
X157343289Y-87490015D01*
X157347578Y-87446464D01*
X157352000Y-87401568D01*
X157352000Y-87401561D01*
X157354911Y-87372002D01*
X157352000Y-87342443D01*
X157352000Y-85579556D01*
X157354911Y-85549999D01*
X157352000Y-85520443D01*
X157352000Y-85520434D01*
X157343289Y-85431988D01*
X157308866Y-85318510D01*
X157252966Y-85213929D01*
X157242286Y-85200916D01*
X157196584Y-85145227D01*
X157196580Y-85145223D01*
X157177737Y-85122263D01*
X157154777Y-85103420D01*
X156766307Y-84714951D01*
X156766307Y-84050000D01*
X156760777Y-83993858D01*
X157806607Y-83994672D01*
X157773000Y-84163623D01*
X157773000Y-84336377D01*
X157806703Y-84505811D01*
X157872813Y-84665415D01*
X157968790Y-84809055D01*
X158090945Y-84931210D01*
X158234585Y-85027187D01*
X158394189Y-85093297D01*
X158563623Y-85127000D01*
X158736377Y-85127000D01*
X158905811Y-85093297D01*
X159044497Y-85035852D01*
X161735002Y-87726358D01*
X161723996Y-87752928D01*
X161673000Y-88009302D01*
X161673000Y-88270698D01*
X161723996Y-88527072D01*
X161824028Y-88768570D01*
X161969252Y-88985913D01*
X162154087Y-89170748D01*
X162371430Y-89315972D01*
X162598433Y-89410000D01*
X162371430Y-89504028D01*
X162154087Y-89649252D01*
X161969252Y-89834087D01*
X161824028Y-90051430D01*
X161723996Y-90292928D01*
X161673000Y-90549302D01*
X161673000Y-90810698D01*
X161723996Y-91067072D01*
X161824028Y-91308570D01*
X161969252Y-91525913D01*
X162154087Y-91710748D01*
X162371430Y-91855972D01*
X162598433Y-91950000D01*
X162371430Y-92044028D01*
X162154087Y-92189252D01*
X161969252Y-92374087D01*
X161824028Y-92591430D01*
X161723996Y-92832928D01*
X161673000Y-93089302D01*
X161673000Y-93350698D01*
X161723996Y-93607072D01*
X161824028Y-93848570D01*
X161969252Y-94065913D01*
X162154087Y-94250748D01*
X162371430Y-94395972D01*
X162543427Y-94467216D01*
X162455578Y-94495191D01*
X162219287Y-94625705D01*
X162012998Y-94799810D01*
X161844639Y-95010814D01*
X161720680Y-95250609D01*
X161653285Y-95472791D01*
X161756892Y-95687000D01*
X162927000Y-95687000D01*
X162927000Y-95667000D01*
X163073000Y-95667000D01*
X163073000Y-95687000D01*
X163093000Y-95687000D01*
X163093000Y-95833000D01*
X163073000Y-95833000D01*
X163073000Y-97003317D01*
X163287209Y-97106718D01*
X163544422Y-97024809D01*
X163780713Y-96894295D01*
X163987002Y-96720190D01*
X164155361Y-96509186D01*
X164279320Y-96269391D01*
X164294260Y-96220137D01*
X164364028Y-96388570D01*
X164509252Y-96605913D01*
X164694087Y-96790748D01*
X164911430Y-96935972D01*
X165152928Y-97036004D01*
X165409302Y-97087000D01*
X165670698Y-97087000D01*
X165927072Y-97036004D01*
X166168570Y-96935972D01*
X166385913Y-96790748D01*
X166570748Y-96605913D01*
X166715972Y-96388570D01*
X166816004Y-96147072D01*
X166867000Y-95890698D01*
X166867000Y-95629302D01*
X166816004Y-95372928D01*
X166715972Y-95131430D01*
X166570748Y-94914087D01*
X166385913Y-94729252D01*
X166168570Y-94584028D01*
X165941567Y-94490000D01*
X166168570Y-94395972D01*
X166385913Y-94250748D01*
X166570748Y-94065913D01*
X166715972Y-93848570D01*
X166816004Y-93607072D01*
X166867000Y-93350698D01*
X166867000Y-93089302D01*
X166816004Y-92832928D01*
X166715972Y-92591430D01*
X166570748Y-92374087D01*
X166385913Y-92189252D01*
X166168570Y-92044028D01*
X165996573Y-91972784D01*
X166084422Y-91944809D01*
X166320713Y-91814295D01*
X166527002Y-91640190D01*
X166695361Y-91429186D01*
X166819320Y-91189391D01*
X166886715Y-90967209D01*
X166783108Y-90753000D01*
X165613000Y-90753000D01*
X165613000Y-90773000D01*
X165467000Y-90773000D01*
X165467000Y-90753000D01*
X165447000Y-90753000D01*
X165447000Y-90607000D01*
X165467000Y-90607000D01*
X165467000Y-90587000D01*
X165613000Y-90587000D01*
X165613000Y-90607000D01*
X166783108Y-90607000D01*
X166886715Y-90392791D01*
X166819320Y-90170609D01*
X166695361Y-89930814D01*
X166527002Y-89719810D01*
X166320713Y-89545705D01*
X166084422Y-89415191D01*
X165996573Y-89387216D01*
X166168570Y-89315972D01*
X166385913Y-89170748D01*
X166570748Y-88985913D01*
X166715972Y-88768570D01*
X166816004Y-88527072D01*
X166867000Y-88270698D01*
X166867000Y-88009302D01*
X166816004Y-87752928D01*
X166715972Y-87511430D01*
X166570748Y-87294087D01*
X166385913Y-87109252D01*
X166168570Y-86964028D01*
X165941567Y-86870000D01*
X166168570Y-86775972D01*
X166385913Y-86630748D01*
X166570748Y-86445913D01*
X166715972Y-86228570D01*
X166816004Y-85987072D01*
X166867000Y-85730698D01*
X166867000Y-85469302D01*
X166816004Y-85212928D01*
X166715972Y-84971430D01*
X166570748Y-84754087D01*
X166385913Y-84569252D01*
X166168570Y-84424028D01*
X165927072Y-84323996D01*
X165670698Y-84273000D01*
X165409302Y-84273000D01*
X165152928Y-84323996D01*
X164911430Y-84424028D01*
X164694087Y-84569252D01*
X164509252Y-84754087D01*
X164364028Y-84971430D01*
X164329307Y-85055254D01*
X164329307Y-84750000D01*
X164320097Y-84656492D01*
X164292822Y-84566577D01*
X164248529Y-84483711D01*
X164188921Y-84411079D01*
X164116289Y-84351471D01*
X164033423Y-84307178D01*
X163943508Y-84279903D01*
X163850000Y-84270693D01*
X162150000Y-84270693D01*
X162056492Y-84279903D01*
X161966577Y-84307178D01*
X161883711Y-84351471D01*
X161811079Y-84411079D01*
X161751471Y-84483711D01*
X161707178Y-84566577D01*
X161679903Y-84656492D01*
X161670693Y-84750000D01*
X161670693Y-85959337D01*
X159707506Y-83996151D01*
X166998000Y-84001824D01*
X166998001Y-97223000D01*
X163202503Y-97223000D01*
X163141846Y-97222403D01*
X163116674Y-97224621D01*
X163091407Y-97224445D01*
X163084432Y-97225129D01*
X162720372Y-97263393D01*
X162675816Y-97272539D01*
X162631109Y-97281068D01*
X162624399Y-97283093D01*
X162274704Y-97391342D01*
X162232759Y-97408975D01*
X162190575Y-97426018D01*
X162184387Y-97429308D01*
X161862377Y-97603419D01*
X161824673Y-97628851D01*
X161786585Y-97653775D01*
X161781154Y-97658205D01*
X161499096Y-97891544D01*
X161467050Y-97923814D01*
X161434529Y-97955662D01*
X161430061Y-97961062D01*
X161198696Y-98244743D01*
X161173512Y-98282648D01*
X161147812Y-98320182D01*
X161144478Y-98326348D01*
X160972621Y-98649565D01*
X160955291Y-98691611D01*
X160937359Y-98733450D01*
X160935286Y-98740146D01*
X160829482Y-99090588D01*
X160820645Y-99135222D01*
X160811186Y-99179723D01*
X160810453Y-99186694D01*
X160792185Y-99373000D01*
X158425845Y-99373000D01*
X158503536Y-99295309D01*
X158588569Y-99168048D01*
X158647141Y-99026643D01*
X158677000Y-98876528D01*
X158677000Y-98723472D01*
X158647141Y-98573357D01*
X158588569Y-98431952D01*
X158503536Y-98304691D01*
X158395309Y-98196464D01*
X158268048Y-98111431D01*
X158126643Y-98052859D01*
X157976528Y-98023000D01*
X157823472Y-98023000D01*
X157809338Y-98025811D01*
X157780794Y-98023000D01*
X157750000Y-98019967D01*
X157719206Y-98023000D01*
X156763648Y-98023000D01*
X156757097Y-97956492D01*
X156729822Y-97866577D01*
X156685529Y-97783711D01*
X156625921Y-97711079D01*
X156590905Y-97682342D01*
X156661448Y-97624448D01*
X156727305Y-97544202D01*
X156776240Y-97452650D01*
X156806375Y-97353310D01*
X156816550Y-97250000D01*
X156814000Y-96854750D01*
X156682250Y-96723000D01*
X155098000Y-96723000D01*
X155098000Y-96743000D01*
X154952000Y-96743000D01*
X154952000Y-96723000D01*
X153367750Y-96723000D01*
X153319798Y-96770953D01*
X153295309Y-96746464D01*
X153168048Y-96661431D01*
X153026643Y-96602859D01*
X152876528Y-96573000D01*
X152723472Y-96573000D01*
X152573357Y-96602859D01*
X152431952Y-96661431D01*
X152304691Y-96746464D01*
X152196464Y-96854691D01*
X152111431Y-96981952D01*
X152052859Y-97123357D01*
X152023000Y-97273472D01*
X152023000Y-97426528D01*
X152052859Y-97576643D01*
X152111431Y-97718048D01*
X152196464Y-97845309D01*
X152304691Y-97953536D01*
X152431952Y-98038569D01*
X152573357Y-98097141D01*
X152723472Y-98127000D01*
X152725645Y-98127000D01*
X153283693Y-98685049D01*
X153283693Y-99250000D01*
X153292903Y-99343508D01*
X153301849Y-99373000D01*
X152625845Y-99373000D01*
X152703536Y-99295309D01*
X152788569Y-99168048D01*
X152847141Y-99026643D01*
X152877000Y-98876528D01*
X152877000Y-98723472D01*
X152847141Y-98573357D01*
X152788569Y-98431952D01*
X152703536Y-98304691D01*
X152595309Y-98196464D01*
X152468048Y-98111431D01*
X152326643Y-98052859D01*
X152176528Y-98023000D01*
X152174356Y-98023000D01*
X151804771Y-97653416D01*
X151559090Y-97407735D01*
X151540238Y-97384764D01*
X151448572Y-97309535D01*
X151343991Y-97253635D01*
X151230513Y-97219212D01*
X151142067Y-97210501D01*
X151142057Y-97210501D01*
X151112501Y-97207590D01*
X151082945Y-97210501D01*
X148561855Y-97210501D01*
X146902009Y-95550656D01*
X146902009Y-91804565D01*
X146904920Y-91775009D01*
X146902009Y-91745452D01*
X146902009Y-91745443D01*
X146893298Y-91656997D01*
X146858875Y-91543519D01*
X146802975Y-91438938D01*
X146727746Y-91347272D01*
X146704775Y-91328420D01*
X146694500Y-91318145D01*
X146694500Y-91315972D01*
X146664641Y-91165857D01*
X146606069Y-91024452D01*
X146521036Y-90897191D01*
X146412809Y-90788964D01*
X146285548Y-90703931D01*
X146144143Y-90645359D01*
X145994028Y-90615500D01*
X145840972Y-90615500D01*
X145690857Y-90645359D01*
X145549452Y-90703931D01*
X145422191Y-90788964D01*
X145313964Y-90897191D01*
X145228931Y-91024452D01*
X145170359Y-91165857D01*
X145163966Y-91198000D01*
X145123472Y-91198000D01*
X144973357Y-91227859D01*
X144831952Y-91286431D01*
X144704691Y-91371464D01*
X144596464Y-91479691D01*
X144511431Y-91606952D01*
X144452859Y-91748357D01*
X144423000Y-91898472D01*
X144423000Y-92051528D01*
X144452859Y-92201643D01*
X144511431Y-92343048D01*
X144596464Y-92470309D01*
X144602699Y-92476544D01*
X144606711Y-92517275D01*
X144641134Y-92630753D01*
X144697034Y-92735334D01*
X144772263Y-92827001D01*
X144795234Y-92845853D01*
X145248001Y-93298621D01*
X145248000Y-95956855D01*
X145245089Y-95986412D01*
X145248000Y-96015968D01*
X145248000Y-96015977D01*
X145256711Y-96104423D01*
X145291134Y-96217901D01*
X145347034Y-96322482D01*
X145422263Y-96414149D01*
X145445234Y-96433001D01*
X147892004Y-98879772D01*
X147910851Y-98902737D01*
X148002517Y-98977966D01*
X148107098Y-99033866D01*
X148220576Y-99068289D01*
X148309022Y-99077000D01*
X148309031Y-99077000D01*
X148338588Y-99079911D01*
X148368144Y-99077000D01*
X150278155Y-99077000D01*
X150279691Y-99078536D01*
X150406952Y-99163569D01*
X150548357Y-99222141D01*
X150698472Y-99252000D01*
X150851528Y-99252000D01*
X151001643Y-99222141D01*
X151143048Y-99163569D01*
X151270309Y-99078536D01*
X151347773Y-99001072D01*
X151352859Y-99026643D01*
X151411431Y-99168048D01*
X151496464Y-99295309D01*
X151574155Y-99373000D01*
X135602000Y-99373000D01*
X135602000Y-93777526D01*
X135820250Y-93777000D01*
X135952000Y-93645250D01*
X135952000Y-92723000D01*
X136098000Y-92723000D01*
X136098000Y-93645250D01*
X136229750Y-93777000D01*
X137287000Y-93779550D01*
X137390310Y-93769375D01*
X137489650Y-93739240D01*
X137581202Y-93690305D01*
X137661448Y-93624448D01*
X137727305Y-93544202D01*
X137776240Y-93452650D01*
X137806375Y-93353310D01*
X137816550Y-93250000D01*
X137814000Y-92854750D01*
X137682250Y-92723000D01*
X136098000Y-92723000D01*
X135952000Y-92723000D01*
X135932000Y-92723000D01*
X135932000Y-92577000D01*
X135952000Y-92577000D01*
X135952000Y-92557000D01*
X136098000Y-92557000D01*
X136098000Y-92577000D01*
X137682250Y-92577000D01*
X137814000Y-92445250D01*
X137816550Y-92050000D01*
X137806375Y-91946690D01*
X137776240Y-91847350D01*
X137727305Y-91755798D01*
X137661448Y-91675552D01*
X137581202Y-91609695D01*
X137576469Y-91607165D01*
X137580969Y-91601148D01*
X137584557Y-91595127D01*
X137700681Y-91397141D01*
X137719755Y-91355846D01*
X137739414Y-91314801D01*
X137741765Y-91308198D01*
X137817221Y-91091429D01*
X137827914Y-91047203D01*
X137839223Y-91003133D01*
X137840247Y-90996199D01*
X137872162Y-90768901D01*
X137874061Y-90723439D01*
X137876595Y-90678016D01*
X137876252Y-90671015D01*
X137863411Y-90441847D01*
X137856440Y-90396857D01*
X137850106Y-90351829D01*
X137848410Y-90345028D01*
X137791301Y-90122720D01*
X137775755Y-90080024D01*
X137760766Y-90037000D01*
X137757780Y-90030659D01*
X137658578Y-89823675D01*
X137635015Y-89784779D01*
X137611974Y-89745519D01*
X137607814Y-89739878D01*
X137573714Y-89694308D01*
X137581202Y-89690305D01*
X137661448Y-89624448D01*
X137727305Y-89544202D01*
X137776240Y-89452650D01*
X137806375Y-89353310D01*
X137816550Y-89250000D01*
X137814000Y-88854750D01*
X137682250Y-88723000D01*
X136098000Y-88723000D01*
X136098000Y-88743000D01*
X135952000Y-88743000D01*
X135952000Y-88723000D01*
X135932000Y-88723000D01*
X135932000Y-88577000D01*
X135952000Y-88577000D01*
X135952000Y-87654750D01*
X136098000Y-87654750D01*
X136098000Y-88577000D01*
X137682250Y-88577000D01*
X137814000Y-88445250D01*
X137816550Y-88050000D01*
X137806375Y-87946690D01*
X137776240Y-87847350D01*
X137727305Y-87755798D01*
X137661448Y-87675552D01*
X137581202Y-87609695D01*
X137489650Y-87560760D01*
X137390310Y-87530625D01*
X137287000Y-87520450D01*
X136229750Y-87523000D01*
X136098000Y-87654750D01*
X135952000Y-87654750D01*
X135820250Y-87523000D01*
X135599623Y-87522468D01*
X135595309Y-83977391D01*
X153289489Y-83991158D01*
G37*
X153289489Y-83991158D02*
X153283693Y-84050000D01*
X153283693Y-85250000D01*
X153292903Y-85343508D01*
X153320178Y-85433423D01*
X153364471Y-85516289D01*
X153424079Y-85588921D01*
X153496711Y-85648529D01*
X153499463Y-85650000D01*
X153496711Y-85651471D01*
X153424079Y-85711079D01*
X153364471Y-85783711D01*
X153320178Y-85866577D01*
X153292903Y-85956492D01*
X153283890Y-86048000D01*
X146749356Y-86048000D01*
X146277000Y-85575645D01*
X146277000Y-85573472D01*
X146247141Y-85423357D01*
X146188569Y-85281952D01*
X146103536Y-85154691D01*
X145995309Y-85046464D01*
X145868048Y-84961431D01*
X145726643Y-84902859D01*
X145576528Y-84873000D01*
X145423472Y-84873000D01*
X145273357Y-84902859D01*
X145131952Y-84961431D01*
X145004691Y-85046464D01*
X144896464Y-85154691D01*
X144811431Y-85281952D01*
X144752859Y-85423357D01*
X144723000Y-85573472D01*
X144723000Y-85726528D01*
X144752859Y-85876643D01*
X144811431Y-86018048D01*
X144896464Y-86145309D01*
X145004691Y-86253536D01*
X145131952Y-86338569D01*
X145273357Y-86397141D01*
X145423472Y-86427000D01*
X145425645Y-86427000D01*
X146053416Y-87054771D01*
X146072263Y-87077737D01*
X146095228Y-87096584D01*
X146163928Y-87152966D01*
X146268510Y-87208866D01*
X146381987Y-87243289D01*
X146393182Y-87244391D01*
X146470434Y-87252000D01*
X146470441Y-87252000D01*
X146500000Y-87254911D01*
X146529559Y-87252000D01*
X153124641Y-87252000D01*
X151845228Y-88531415D01*
X151822263Y-88550262D01*
X151803416Y-88573227D01*
X151803415Y-88573228D01*
X151747034Y-88641928D01*
X151691133Y-88746510D01*
X151656711Y-88859987D01*
X151645088Y-88977999D01*
X151648000Y-89007565D01*
X151647999Y-90564853D01*
X151568048Y-90511431D01*
X151426643Y-90452859D01*
X151276528Y-90423000D01*
X151123472Y-90423000D01*
X150973357Y-90452859D01*
X150831952Y-90511431D01*
X150704691Y-90596464D01*
X150703155Y-90598000D01*
X149249356Y-90598000D01*
X147102294Y-88450939D01*
X147083442Y-88427968D01*
X146991776Y-88352739D01*
X146887195Y-88296839D01*
X146773717Y-88262416D01*
X146685271Y-88253705D01*
X146685261Y-88253705D01*
X146655705Y-88250794D01*
X146626149Y-88253705D01*
X146451704Y-88253705D01*
X146477000Y-88126528D01*
X146477000Y-87973472D01*
X146447141Y-87823357D01*
X146388569Y-87681952D01*
X146303536Y-87554691D01*
X146195309Y-87446464D01*
X146068048Y-87361431D01*
X145926643Y-87302859D01*
X145776528Y-87273000D01*
X145623472Y-87273000D01*
X145473357Y-87302859D01*
X145331952Y-87361431D01*
X145204691Y-87446464D01*
X145203155Y-87448000D01*
X144874356Y-87448000D01*
X142984093Y-85557738D01*
X142984084Y-85557727D01*
X142471588Y-85045233D01*
X142452737Y-85022263D01*
X142361071Y-84947034D01*
X142256490Y-84891134D01*
X142143012Y-84856711D01*
X142054566Y-84848000D01*
X142054556Y-84848000D01*
X142025000Y-84845089D01*
X141996719Y-84847874D01*
X141995309Y-84846464D01*
X141868048Y-84761431D01*
X141726643Y-84702859D01*
X141576528Y-84673000D01*
X141423472Y-84673000D01*
X141273357Y-84702859D01*
X141131952Y-84761431D01*
X141004691Y-84846464D01*
X140896464Y-84954691D01*
X140811431Y-85081952D01*
X140752859Y-85223357D01*
X140723000Y-85373472D01*
X140723000Y-85526528D01*
X140752859Y-85676643D01*
X140811431Y-85818048D01*
X140896464Y-85945309D01*
X141004691Y-86053536D01*
X141131952Y-86138569D01*
X141273357Y-86197141D01*
X141423472Y-86227000D01*
X141576528Y-86227000D01*
X141726643Y-86197141D01*
X141863922Y-86140278D01*
X142121643Y-86398000D01*
X140446845Y-86398000D01*
X140445309Y-86396464D01*
X140318048Y-86311431D01*
X140176643Y-86252859D01*
X140026528Y-86223000D01*
X139873472Y-86223000D01*
X139723357Y-86252859D01*
X139581952Y-86311431D01*
X139454691Y-86396464D01*
X139346464Y-86504691D01*
X139261431Y-86631952D01*
X139202859Y-86773357D01*
X139173000Y-86923472D01*
X139173000Y-87076528D01*
X139202859Y-87226643D01*
X139261431Y-87368048D01*
X139346464Y-87495309D01*
X139454691Y-87603536D01*
X139581952Y-87688569D01*
X139723357Y-87747141D01*
X139873472Y-87777000D01*
X140026528Y-87777000D01*
X140176643Y-87747141D01*
X140318048Y-87688569D01*
X140445309Y-87603536D01*
X140446845Y-87602000D01*
X142689235Y-87602000D01*
X144347715Y-89260482D01*
X144366558Y-89283442D01*
X144389518Y-89302285D01*
X144389522Y-89302289D01*
X144439748Y-89343508D01*
X144458224Y-89358671D01*
X144562805Y-89414571D01*
X144676283Y-89448994D01*
X144764729Y-89457705D01*
X144764738Y-89457705D01*
X144794294Y-89460616D01*
X144823851Y-89457705D01*
X146406350Y-89457705D01*
X148553416Y-91604772D01*
X148572263Y-91627737D01*
X148663929Y-91702966D01*
X148768510Y-91758866D01*
X148881988Y-91793289D01*
X148970434Y-91802000D01*
X148970443Y-91802000D01*
X149000000Y-91804911D01*
X149029556Y-91802000D01*
X150703155Y-91802000D01*
X150704691Y-91803536D01*
X150831952Y-91888569D01*
X150973357Y-91947141D01*
X151123472Y-91977000D01*
X151276528Y-91977000D01*
X151416681Y-91949122D01*
X151406712Y-91981988D01*
X151395089Y-92100000D01*
X151398001Y-92129566D01*
X151398000Y-92703155D01*
X151396464Y-92704691D01*
X151311431Y-92831952D01*
X151252859Y-92973357D01*
X151223000Y-93123472D01*
X151223000Y-93276528D01*
X151252859Y-93426643D01*
X151311431Y-93568048D01*
X151396464Y-93695309D01*
X151504691Y-93803536D01*
X151631952Y-93888569D01*
X151773357Y-93947141D01*
X151923472Y-93977000D01*
X152076528Y-93977000D01*
X152122267Y-93967902D01*
X152004691Y-94046464D01*
X151896464Y-94154691D01*
X151811431Y-94281952D01*
X151752859Y-94423357D01*
X151746454Y-94455556D01*
X151736071Y-94447034D01*
X151631490Y-94391134D01*
X151518012Y-94356711D01*
X151429566Y-94348000D01*
X151429556Y-94348000D01*
X151400000Y-94345089D01*
X151370444Y-94348000D01*
X151246845Y-94348000D01*
X151245309Y-94346464D01*
X151118048Y-94261431D01*
X150976643Y-94202859D01*
X150826528Y-94173000D01*
X150673472Y-94173000D01*
X150523357Y-94202859D01*
X150381952Y-94261431D01*
X150254691Y-94346464D01*
X150146464Y-94454691D01*
X150061431Y-94581952D01*
X150002859Y-94723357D01*
X149973000Y-94873472D01*
X149973000Y-95026528D01*
X150002859Y-95176643D01*
X150061431Y-95318048D01*
X150146464Y-95445309D01*
X150254691Y-95553536D01*
X150381952Y-95638569D01*
X150523357Y-95697141D01*
X150673472Y-95727000D01*
X150826528Y-95727000D01*
X150976643Y-95697141D01*
X151118048Y-95638569D01*
X151189483Y-95590838D01*
X151278412Y-95679767D01*
X151297264Y-95702738D01*
X151388930Y-95777967D01*
X151493511Y-95833867D01*
X151606989Y-95868290D01*
X151695435Y-95877001D01*
X151695444Y-95877001D01*
X151725001Y-95879912D01*
X151754557Y-95877001D01*
X152858443Y-95877001D01*
X152887999Y-95879912D01*
X152917555Y-95877001D01*
X152917565Y-95877001D01*
X153006011Y-95868290D01*
X153119489Y-95833867D01*
X153224070Y-95777967D01*
X153315736Y-95702738D01*
X153334588Y-95679767D01*
X153424823Y-95589532D01*
X153459095Y-95617658D01*
X153388552Y-95675552D01*
X153322695Y-95755798D01*
X153273760Y-95847350D01*
X153243625Y-95946690D01*
X153233450Y-96050000D01*
X153236000Y-96445250D01*
X153367750Y-96577000D01*
X154952000Y-96577000D01*
X154952000Y-96557000D01*
X155098000Y-96557000D01*
X155098000Y-96577000D01*
X156682250Y-96577000D01*
X156814000Y-96445250D01*
X156816550Y-96050000D01*
X156816276Y-96047209D01*
X161653285Y-96047209D01*
X161720680Y-96269391D01*
X161844639Y-96509186D01*
X162012998Y-96720190D01*
X162219287Y-96894295D01*
X162455578Y-97024809D01*
X162712791Y-97106718D01*
X162927000Y-97003317D01*
X162927000Y-95833000D01*
X161756892Y-95833000D01*
X161653285Y-96047209D01*
X156816276Y-96047209D01*
X156806375Y-95946690D01*
X156776240Y-95847350D01*
X156727305Y-95755798D01*
X156661448Y-95675552D01*
X156590905Y-95617658D01*
X156625921Y-95588921D01*
X156685529Y-95516289D01*
X156729822Y-95433423D01*
X156757097Y-95343508D01*
X156766307Y-95250000D01*
X156766307Y-94050000D01*
X156757097Y-93956492D01*
X156729822Y-93866577D01*
X156685529Y-93783711D01*
X156625921Y-93711079D01*
X156553289Y-93651471D01*
X156550537Y-93650000D01*
X156553289Y-93648529D01*
X156625921Y-93588921D01*
X156685529Y-93516289D01*
X156729822Y-93433423D01*
X156757097Y-93343508D01*
X156766307Y-93250000D01*
X156766307Y-92242662D01*
X156920958Y-92397313D01*
X156920693Y-92399999D01*
X156920693Y-93050001D01*
X156934706Y-93192282D01*
X156976208Y-93329094D01*
X157043603Y-93455182D01*
X157134302Y-93565698D01*
X157244818Y-93656397D01*
X157370906Y-93723792D01*
X157507718Y-93765294D01*
X157649999Y-93779307D01*
X158550001Y-93779307D01*
X158692282Y-93765294D01*
X158829094Y-93723792D01*
X158955182Y-93656397D01*
X159065698Y-93565698D01*
X159156397Y-93455182D01*
X159223792Y-93329094D01*
X159265294Y-93192282D01*
X159279307Y-93050001D01*
X159279307Y-92399999D01*
X159265294Y-92257718D01*
X159223792Y-92120906D01*
X159156397Y-91994818D01*
X159065698Y-91884302D01*
X158955182Y-91793603D01*
X158907485Y-91768109D01*
X159002650Y-91739240D01*
X159094202Y-91690305D01*
X159174448Y-91624448D01*
X159240305Y-91544202D01*
X159289240Y-91452650D01*
X159319375Y-91353310D01*
X159329550Y-91250000D01*
X159327000Y-90879750D01*
X159195250Y-90748000D01*
X158173000Y-90748000D01*
X158173000Y-90768000D01*
X158027000Y-90768000D01*
X158027000Y-90748000D01*
X158007000Y-90748000D01*
X158007000Y-90602000D01*
X158027000Y-90602000D01*
X158027000Y-89704750D01*
X158173000Y-89704750D01*
X158173000Y-90602000D01*
X159195250Y-90602000D01*
X159327000Y-90470250D01*
X159329550Y-90100000D01*
X159319375Y-89996690D01*
X159289240Y-89897350D01*
X159240305Y-89805798D01*
X159174448Y-89725552D01*
X159094202Y-89659695D01*
X159002650Y-89610760D01*
X158903310Y-89580625D01*
X158800000Y-89570450D01*
X158304750Y-89573000D01*
X158173000Y-89704750D01*
X158027000Y-89704750D01*
X157895250Y-89573000D01*
X157400000Y-89570450D01*
X157296690Y-89580625D01*
X157261434Y-89591320D01*
X157227737Y-89550261D01*
X157204767Y-89531410D01*
X156993590Y-89320233D01*
X156974738Y-89297262D01*
X156883072Y-89222033D01*
X156778491Y-89166133D01*
X156766307Y-89162437D01*
X156766307Y-88175291D01*
X156808073Y-88152966D01*
X156899739Y-88077737D01*
X156918591Y-88054766D01*
X157154767Y-87818590D01*
X157177737Y-87799739D01*
X157252966Y-87708073D01*
X157308866Y-87603492D01*
X157316022Y-87579903D01*
X157343289Y-87490015D01*
X157347578Y-87446464D01*
X157352000Y-87401568D01*
X157352000Y-87401561D01*
X157354911Y-87372002D01*
X157352000Y-87342443D01*
X157352000Y-85579556D01*
X157354911Y-85549999D01*
X157352000Y-85520443D01*
X157352000Y-85520434D01*
X157343289Y-85431988D01*
X157308866Y-85318510D01*
X157252966Y-85213929D01*
X157242286Y-85200916D01*
X157196584Y-85145227D01*
X157196580Y-85145223D01*
X157177737Y-85122263D01*
X157154777Y-85103420D01*
X156766307Y-84714951D01*
X156766307Y-84050000D01*
X156760777Y-83993858D01*
X157806607Y-83994672D01*
X157773000Y-84163623D01*
X157773000Y-84336377D01*
X157806703Y-84505811D01*
X157872813Y-84665415D01*
X157968790Y-84809055D01*
X158090945Y-84931210D01*
X158234585Y-85027187D01*
X158394189Y-85093297D01*
X158563623Y-85127000D01*
X158736377Y-85127000D01*
X158905811Y-85093297D01*
X159044497Y-85035852D01*
X161735002Y-87726358D01*
X161723996Y-87752928D01*
X161673000Y-88009302D01*
X161673000Y-88270698D01*
X161723996Y-88527072D01*
X161824028Y-88768570D01*
X161969252Y-88985913D01*
X162154087Y-89170748D01*
X162371430Y-89315972D01*
X162598433Y-89410000D01*
X162371430Y-89504028D01*
X162154087Y-89649252D01*
X161969252Y-89834087D01*
X161824028Y-90051430D01*
X161723996Y-90292928D01*
X161673000Y-90549302D01*
X161673000Y-90810698D01*
X161723996Y-91067072D01*
X161824028Y-91308570D01*
X161969252Y-91525913D01*
X162154087Y-91710748D01*
X162371430Y-91855972D01*
X162598433Y-91950000D01*
X162371430Y-92044028D01*
X162154087Y-92189252D01*
X161969252Y-92374087D01*
X161824028Y-92591430D01*
X161723996Y-92832928D01*
X161673000Y-93089302D01*
X161673000Y-93350698D01*
X161723996Y-93607072D01*
X161824028Y-93848570D01*
X161969252Y-94065913D01*
X162154087Y-94250748D01*
X162371430Y-94395972D01*
X162543427Y-94467216D01*
X162455578Y-94495191D01*
X162219287Y-94625705D01*
X162012998Y-94799810D01*
X161844639Y-95010814D01*
X161720680Y-95250609D01*
X161653285Y-95472791D01*
X161756892Y-95687000D01*
X162927000Y-95687000D01*
X162927000Y-95667000D01*
X163073000Y-95667000D01*
X163073000Y-95687000D01*
X163093000Y-95687000D01*
X163093000Y-95833000D01*
X163073000Y-95833000D01*
X163073000Y-97003317D01*
X163287209Y-97106718D01*
X163544422Y-97024809D01*
X163780713Y-96894295D01*
X163987002Y-96720190D01*
X164155361Y-96509186D01*
X164279320Y-96269391D01*
X164294260Y-96220137D01*
X164364028Y-96388570D01*
X164509252Y-96605913D01*
X164694087Y-96790748D01*
X164911430Y-96935972D01*
X165152928Y-97036004D01*
X165409302Y-97087000D01*
X165670698Y-97087000D01*
X165927072Y-97036004D01*
X166168570Y-96935972D01*
X166385913Y-96790748D01*
X166570748Y-96605913D01*
X166715972Y-96388570D01*
X166816004Y-96147072D01*
X166867000Y-95890698D01*
X166867000Y-95629302D01*
X166816004Y-95372928D01*
X166715972Y-95131430D01*
X166570748Y-94914087D01*
X166385913Y-94729252D01*
X166168570Y-94584028D01*
X165941567Y-94490000D01*
X166168570Y-94395972D01*
X166385913Y-94250748D01*
X166570748Y-94065913D01*
X166715972Y-93848570D01*
X166816004Y-93607072D01*
X166867000Y-93350698D01*
X166867000Y-93089302D01*
X166816004Y-92832928D01*
X166715972Y-92591430D01*
X166570748Y-92374087D01*
X166385913Y-92189252D01*
X166168570Y-92044028D01*
X165996573Y-91972784D01*
X166084422Y-91944809D01*
X166320713Y-91814295D01*
X166527002Y-91640190D01*
X166695361Y-91429186D01*
X166819320Y-91189391D01*
X166886715Y-90967209D01*
X166783108Y-90753000D01*
X165613000Y-90753000D01*
X165613000Y-90773000D01*
X165467000Y-90773000D01*
X165467000Y-90753000D01*
X165447000Y-90753000D01*
X165447000Y-90607000D01*
X165467000Y-90607000D01*
X165467000Y-90587000D01*
X165613000Y-90587000D01*
X165613000Y-90607000D01*
X166783108Y-90607000D01*
X166886715Y-90392791D01*
X166819320Y-90170609D01*
X166695361Y-89930814D01*
X166527002Y-89719810D01*
X166320713Y-89545705D01*
X166084422Y-89415191D01*
X165996573Y-89387216D01*
X166168570Y-89315972D01*
X166385913Y-89170748D01*
X166570748Y-88985913D01*
X166715972Y-88768570D01*
X166816004Y-88527072D01*
X166867000Y-88270698D01*
X166867000Y-88009302D01*
X166816004Y-87752928D01*
X166715972Y-87511430D01*
X166570748Y-87294087D01*
X166385913Y-87109252D01*
X166168570Y-86964028D01*
X165941567Y-86870000D01*
X166168570Y-86775972D01*
X166385913Y-86630748D01*
X166570748Y-86445913D01*
X166715972Y-86228570D01*
X166816004Y-85987072D01*
X166867000Y-85730698D01*
X166867000Y-85469302D01*
X166816004Y-85212928D01*
X166715972Y-84971430D01*
X166570748Y-84754087D01*
X166385913Y-84569252D01*
X166168570Y-84424028D01*
X165927072Y-84323996D01*
X165670698Y-84273000D01*
X165409302Y-84273000D01*
X165152928Y-84323996D01*
X164911430Y-84424028D01*
X164694087Y-84569252D01*
X164509252Y-84754087D01*
X164364028Y-84971430D01*
X164329307Y-85055254D01*
X164329307Y-84750000D01*
X164320097Y-84656492D01*
X164292822Y-84566577D01*
X164248529Y-84483711D01*
X164188921Y-84411079D01*
X164116289Y-84351471D01*
X164033423Y-84307178D01*
X163943508Y-84279903D01*
X163850000Y-84270693D01*
X162150000Y-84270693D01*
X162056492Y-84279903D01*
X161966577Y-84307178D01*
X161883711Y-84351471D01*
X161811079Y-84411079D01*
X161751471Y-84483711D01*
X161707178Y-84566577D01*
X161679903Y-84656492D01*
X161670693Y-84750000D01*
X161670693Y-85959337D01*
X159707506Y-83996151D01*
X166998000Y-84001824D01*
X166998001Y-97223000D01*
X163202503Y-97223000D01*
X163141846Y-97222403D01*
X163116674Y-97224621D01*
X163091407Y-97224445D01*
X163084432Y-97225129D01*
X162720372Y-97263393D01*
X162675816Y-97272539D01*
X162631109Y-97281068D01*
X162624399Y-97283093D01*
X162274704Y-97391342D01*
X162232759Y-97408975D01*
X162190575Y-97426018D01*
X162184387Y-97429308D01*
X161862377Y-97603419D01*
X161824673Y-97628851D01*
X161786585Y-97653775D01*
X161781154Y-97658205D01*
X161499096Y-97891544D01*
X161467050Y-97923814D01*
X161434529Y-97955662D01*
X161430061Y-97961062D01*
X161198696Y-98244743D01*
X161173512Y-98282648D01*
X161147812Y-98320182D01*
X161144478Y-98326348D01*
X160972621Y-98649565D01*
X160955291Y-98691611D01*
X160937359Y-98733450D01*
X160935286Y-98740146D01*
X160829482Y-99090588D01*
X160820645Y-99135222D01*
X160811186Y-99179723D01*
X160810453Y-99186694D01*
X160792185Y-99373000D01*
X158425845Y-99373000D01*
X158503536Y-99295309D01*
X158588569Y-99168048D01*
X158647141Y-99026643D01*
X158677000Y-98876528D01*
X158677000Y-98723472D01*
X158647141Y-98573357D01*
X158588569Y-98431952D01*
X158503536Y-98304691D01*
X158395309Y-98196464D01*
X158268048Y-98111431D01*
X158126643Y-98052859D01*
X157976528Y-98023000D01*
X157823472Y-98023000D01*
X157809338Y-98025811D01*
X157780794Y-98023000D01*
X157750000Y-98019967D01*
X157719206Y-98023000D01*
X156763648Y-98023000D01*
X156757097Y-97956492D01*
X156729822Y-97866577D01*
X156685529Y-97783711D01*
X156625921Y-97711079D01*
X156590905Y-97682342D01*
X156661448Y-97624448D01*
X156727305Y-97544202D01*
X156776240Y-97452650D01*
X156806375Y-97353310D01*
X156816550Y-97250000D01*
X156814000Y-96854750D01*
X156682250Y-96723000D01*
X155098000Y-96723000D01*
X155098000Y-96743000D01*
X154952000Y-96743000D01*
X154952000Y-96723000D01*
X153367750Y-96723000D01*
X153319798Y-96770953D01*
X153295309Y-96746464D01*
X153168048Y-96661431D01*
X153026643Y-96602859D01*
X152876528Y-96573000D01*
X152723472Y-96573000D01*
X152573357Y-96602859D01*
X152431952Y-96661431D01*
X152304691Y-96746464D01*
X152196464Y-96854691D01*
X152111431Y-96981952D01*
X152052859Y-97123357D01*
X152023000Y-97273472D01*
X152023000Y-97426528D01*
X152052859Y-97576643D01*
X152111431Y-97718048D01*
X152196464Y-97845309D01*
X152304691Y-97953536D01*
X152431952Y-98038569D01*
X152573357Y-98097141D01*
X152723472Y-98127000D01*
X152725645Y-98127000D01*
X153283693Y-98685049D01*
X153283693Y-99250000D01*
X153292903Y-99343508D01*
X153301849Y-99373000D01*
X152625845Y-99373000D01*
X152703536Y-99295309D01*
X152788569Y-99168048D01*
X152847141Y-99026643D01*
X152877000Y-98876528D01*
X152877000Y-98723472D01*
X152847141Y-98573357D01*
X152788569Y-98431952D01*
X152703536Y-98304691D01*
X152595309Y-98196464D01*
X152468048Y-98111431D01*
X152326643Y-98052859D01*
X152176528Y-98023000D01*
X152174356Y-98023000D01*
X151804771Y-97653416D01*
X151559090Y-97407735D01*
X151540238Y-97384764D01*
X151448572Y-97309535D01*
X151343991Y-97253635D01*
X151230513Y-97219212D01*
X151142067Y-97210501D01*
X151142057Y-97210501D01*
X151112501Y-97207590D01*
X151082945Y-97210501D01*
X148561855Y-97210501D01*
X146902009Y-95550656D01*
X146902009Y-91804565D01*
X146904920Y-91775009D01*
X146902009Y-91745452D01*
X146902009Y-91745443D01*
X146893298Y-91656997D01*
X146858875Y-91543519D01*
X146802975Y-91438938D01*
X146727746Y-91347272D01*
X146704775Y-91328420D01*
X146694500Y-91318145D01*
X146694500Y-91315972D01*
X146664641Y-91165857D01*
X146606069Y-91024452D01*
X146521036Y-90897191D01*
X146412809Y-90788964D01*
X146285548Y-90703931D01*
X146144143Y-90645359D01*
X145994028Y-90615500D01*
X145840972Y-90615500D01*
X145690857Y-90645359D01*
X145549452Y-90703931D01*
X145422191Y-90788964D01*
X145313964Y-90897191D01*
X145228931Y-91024452D01*
X145170359Y-91165857D01*
X145163966Y-91198000D01*
X145123472Y-91198000D01*
X144973357Y-91227859D01*
X144831952Y-91286431D01*
X144704691Y-91371464D01*
X144596464Y-91479691D01*
X144511431Y-91606952D01*
X144452859Y-91748357D01*
X144423000Y-91898472D01*
X144423000Y-92051528D01*
X144452859Y-92201643D01*
X144511431Y-92343048D01*
X144596464Y-92470309D01*
X144602699Y-92476544D01*
X144606711Y-92517275D01*
X144641134Y-92630753D01*
X144697034Y-92735334D01*
X144772263Y-92827001D01*
X144795234Y-92845853D01*
X145248001Y-93298621D01*
X145248000Y-95956855D01*
X145245089Y-95986412D01*
X145248000Y-96015968D01*
X145248000Y-96015977D01*
X145256711Y-96104423D01*
X145291134Y-96217901D01*
X145347034Y-96322482D01*
X145422263Y-96414149D01*
X145445234Y-96433001D01*
X147892004Y-98879772D01*
X147910851Y-98902737D01*
X148002517Y-98977966D01*
X148107098Y-99033866D01*
X148220576Y-99068289D01*
X148309022Y-99077000D01*
X148309031Y-99077000D01*
X148338588Y-99079911D01*
X148368144Y-99077000D01*
X150278155Y-99077000D01*
X150279691Y-99078536D01*
X150406952Y-99163569D01*
X150548357Y-99222141D01*
X150698472Y-99252000D01*
X150851528Y-99252000D01*
X151001643Y-99222141D01*
X151143048Y-99163569D01*
X151270309Y-99078536D01*
X151347773Y-99001072D01*
X151352859Y-99026643D01*
X151411431Y-99168048D01*
X151496464Y-99295309D01*
X151574155Y-99373000D01*
X135602000Y-99373000D01*
X135602000Y-93777526D01*
X135820250Y-93777000D01*
X135952000Y-93645250D01*
X135952000Y-92723000D01*
X136098000Y-92723000D01*
X136098000Y-93645250D01*
X136229750Y-93777000D01*
X137287000Y-93779550D01*
X137390310Y-93769375D01*
X137489650Y-93739240D01*
X137581202Y-93690305D01*
X137661448Y-93624448D01*
X137727305Y-93544202D01*
X137776240Y-93452650D01*
X137806375Y-93353310D01*
X137816550Y-93250000D01*
X137814000Y-92854750D01*
X137682250Y-92723000D01*
X136098000Y-92723000D01*
X135952000Y-92723000D01*
X135932000Y-92723000D01*
X135932000Y-92577000D01*
X135952000Y-92577000D01*
X135952000Y-92557000D01*
X136098000Y-92557000D01*
X136098000Y-92577000D01*
X137682250Y-92577000D01*
X137814000Y-92445250D01*
X137816550Y-92050000D01*
X137806375Y-91946690D01*
X137776240Y-91847350D01*
X137727305Y-91755798D01*
X137661448Y-91675552D01*
X137581202Y-91609695D01*
X137576469Y-91607165D01*
X137580969Y-91601148D01*
X137584557Y-91595127D01*
X137700681Y-91397141D01*
X137719755Y-91355846D01*
X137739414Y-91314801D01*
X137741765Y-91308198D01*
X137817221Y-91091429D01*
X137827914Y-91047203D01*
X137839223Y-91003133D01*
X137840247Y-90996199D01*
X137872162Y-90768901D01*
X137874061Y-90723439D01*
X137876595Y-90678016D01*
X137876252Y-90671015D01*
X137863411Y-90441847D01*
X137856440Y-90396857D01*
X137850106Y-90351829D01*
X137848410Y-90345028D01*
X137791301Y-90122720D01*
X137775755Y-90080024D01*
X137760766Y-90037000D01*
X137757780Y-90030659D01*
X137658578Y-89823675D01*
X137635015Y-89784779D01*
X137611974Y-89745519D01*
X137607814Y-89739878D01*
X137573714Y-89694308D01*
X137581202Y-89690305D01*
X137661448Y-89624448D01*
X137727305Y-89544202D01*
X137776240Y-89452650D01*
X137806375Y-89353310D01*
X137816550Y-89250000D01*
X137814000Y-88854750D01*
X137682250Y-88723000D01*
X136098000Y-88723000D01*
X136098000Y-88743000D01*
X135952000Y-88743000D01*
X135952000Y-88723000D01*
X135932000Y-88723000D01*
X135932000Y-88577000D01*
X135952000Y-88577000D01*
X135952000Y-87654750D01*
X136098000Y-87654750D01*
X136098000Y-88577000D01*
X137682250Y-88577000D01*
X137814000Y-88445250D01*
X137816550Y-88050000D01*
X137806375Y-87946690D01*
X137776240Y-87847350D01*
X137727305Y-87755798D01*
X137661448Y-87675552D01*
X137581202Y-87609695D01*
X137489650Y-87560760D01*
X137390310Y-87530625D01*
X137287000Y-87520450D01*
X136229750Y-87523000D01*
X136098000Y-87654750D01*
X135952000Y-87654750D01*
X135820250Y-87523000D01*
X135599623Y-87522468D01*
X135595309Y-83977391D01*
X153289489Y-83991158D01*
M02*
