G04 #@! TF.GenerationSoftware,KiCad,Pcbnew,(5.1.6)-1*
G04 #@! TF.CreationDate,2020-11-13T23:12:39+01:00*
G04 #@! TF.ProjectId,AskSin-Analyzer-XS-RPi,41736b53-696e-42d4-916e-616c797a6572,rev?*
G04 #@! TF.SameCoordinates,Original*
G04 #@! TF.FileFunction,Legend,Top*
G04 #@! TF.FilePolarity,Positive*
%FSLAX46Y46*%
G04 Gerber Fmt 4.6, Leading zero omitted, Abs format (unit mm)*
G04 Created by KiCad (PCBNEW (5.1.6)-1) date 2020-11-13 23:12:39*
%MOMM*%
%LPD*%
G01*
G04 APERTURE LIST*
%ADD10C,0.120000*%
%ADD11C,0.140000*%
%ADD12C,0.150000*%
G04 APERTURE END LIST*
D10*
X161870000Y-86730000D02*
X161870000Y-84480000D01*
X164140000Y-86730000D02*
X161870000Y-86730000D01*
X164140000Y-84470000D02*
X164140000Y-86730000D01*
X161870000Y-84470000D02*
X164140000Y-84470000D01*
D11*
X150942333Y-90972380D02*
X150942333Y-90392380D01*
X151175666Y-90806666D01*
X151409000Y-90392380D01*
X151409000Y-90972380D01*
X151742333Y-90972380D02*
X151742333Y-90392380D01*
X152042333Y-90944761D02*
X152142333Y-90972380D01*
X152309000Y-90972380D01*
X152375666Y-90944761D01*
X152409000Y-90917142D01*
X152442333Y-90861904D01*
X152442333Y-90806666D01*
X152409000Y-90751428D01*
X152375666Y-90723809D01*
X152309000Y-90696190D01*
X152175666Y-90668571D01*
X152109000Y-90640952D01*
X152075666Y-90613333D01*
X152042333Y-90558095D01*
X152042333Y-90502857D01*
X152075666Y-90447619D01*
X152109000Y-90420000D01*
X152175666Y-90392380D01*
X152342333Y-90392380D01*
X152442333Y-90420000D01*
X152875666Y-90392380D02*
X153009000Y-90392380D01*
X153075666Y-90420000D01*
X153142333Y-90475238D01*
X153175666Y-90585714D01*
X153175666Y-90779047D01*
X153142333Y-90889523D01*
X153075666Y-90944761D01*
X153009000Y-90972380D01*
X152875666Y-90972380D01*
X152809000Y-90944761D01*
X152742333Y-90889523D01*
X152709000Y-90779047D01*
X152709000Y-90585714D01*
X152742333Y-90475238D01*
X152809000Y-90420000D01*
X152875666Y-90392380D01*
X151375666Y-92964761D02*
X151475666Y-92992380D01*
X151642333Y-92992380D01*
X151709000Y-92964761D01*
X151742333Y-92937142D01*
X151775666Y-92881904D01*
X151775666Y-92826666D01*
X151742333Y-92771428D01*
X151709000Y-92743809D01*
X151642333Y-92716190D01*
X151509000Y-92688571D01*
X151442333Y-92660952D01*
X151409000Y-92633333D01*
X151375666Y-92578095D01*
X151375666Y-92522857D01*
X151409000Y-92467619D01*
X151442333Y-92440000D01*
X151509000Y-92412380D01*
X151675666Y-92412380D01*
X151775666Y-92440000D01*
X152475666Y-92937142D02*
X152442333Y-92964761D01*
X152342333Y-92992380D01*
X152275666Y-92992380D01*
X152175666Y-92964761D01*
X152109000Y-92909523D01*
X152075666Y-92854285D01*
X152042333Y-92743809D01*
X152042333Y-92660952D01*
X152075666Y-92550476D01*
X152109000Y-92495238D01*
X152175666Y-92440000D01*
X152275666Y-92412380D01*
X152342333Y-92412380D01*
X152442333Y-92440000D01*
X152475666Y-92467619D01*
X152775666Y-92992380D02*
X152775666Y-92412380D01*
X153175666Y-92992380D02*
X152875666Y-92660952D01*
X153175666Y-92412380D02*
X152775666Y-92743809D01*
X150942333Y-95012380D02*
X150942333Y-94432380D01*
X151175666Y-94846666D01*
X151409000Y-94432380D01*
X151409000Y-95012380D01*
X151875666Y-94432380D02*
X152009000Y-94432380D01*
X152075666Y-94460000D01*
X152142333Y-94515238D01*
X152175666Y-94625714D01*
X152175666Y-94819047D01*
X152142333Y-94929523D01*
X152075666Y-94984761D01*
X152009000Y-95012380D01*
X151875666Y-95012380D01*
X151809000Y-94984761D01*
X151742333Y-94929523D01*
X151709000Y-94819047D01*
X151709000Y-94625714D01*
X151742333Y-94515238D01*
X151809000Y-94460000D01*
X151875666Y-94432380D01*
X152442333Y-94984761D02*
X152542333Y-95012380D01*
X152709000Y-95012380D01*
X152775666Y-94984761D01*
X152809000Y-94957142D01*
X152842333Y-94901904D01*
X152842333Y-94846666D01*
X152809000Y-94791428D01*
X152775666Y-94763809D01*
X152709000Y-94736190D01*
X152575666Y-94708571D01*
X152509000Y-94680952D01*
X152475666Y-94653333D01*
X152442333Y-94598095D01*
X152442333Y-94542857D01*
X152475666Y-94487619D01*
X152509000Y-94460000D01*
X152575666Y-94432380D01*
X152742333Y-94432380D01*
X152842333Y-94460000D01*
X153142333Y-95012380D02*
X153142333Y-94432380D01*
X151709000Y-96480000D02*
X151642333Y-96452380D01*
X151542333Y-96452380D01*
X151442333Y-96480000D01*
X151375666Y-96535238D01*
X151342333Y-96590476D01*
X151309000Y-96700952D01*
X151309000Y-96783809D01*
X151342333Y-96894285D01*
X151375666Y-96949523D01*
X151442333Y-97004761D01*
X151542333Y-97032380D01*
X151609000Y-97032380D01*
X151709000Y-97004761D01*
X151742333Y-96977142D01*
X151742333Y-96783809D01*
X151609000Y-96783809D01*
X152042333Y-97032380D02*
X152042333Y-96452380D01*
X152442333Y-97032380D01*
X152442333Y-96452380D01*
X152775666Y-97032380D02*
X152775666Y-96452380D01*
X152942333Y-96452380D01*
X153042333Y-96480000D01*
X153109000Y-96535238D01*
X153142333Y-96590476D01*
X153175666Y-96700952D01*
X153175666Y-96783809D01*
X153142333Y-96894285D01*
X153109000Y-96949523D01*
X153042333Y-97004761D01*
X152942333Y-97032380D01*
X152775666Y-97032380D01*
X151375666Y-98472380D02*
X151609000Y-99052380D01*
X151842333Y-98472380D01*
X152475666Y-98997142D02*
X152442333Y-99024761D01*
X152342333Y-99052380D01*
X152275666Y-99052380D01*
X152175666Y-99024761D01*
X152109000Y-98969523D01*
X152075666Y-98914285D01*
X152042333Y-98803809D01*
X152042333Y-98720952D01*
X152075666Y-98610476D01*
X152109000Y-98555238D01*
X152175666Y-98500000D01*
X152275666Y-98472380D01*
X152342333Y-98472380D01*
X152442333Y-98500000D01*
X152475666Y-98527619D01*
X153175666Y-98997142D02*
X153142333Y-99024761D01*
X153042333Y-99052380D01*
X152975666Y-99052380D01*
X152875666Y-99024761D01*
X152809000Y-98969523D01*
X152775666Y-98914285D01*
X152742333Y-98803809D01*
X152742333Y-98720952D01*
X152775666Y-98610476D01*
X152809000Y-98555238D01*
X152875666Y-98500000D01*
X152975666Y-98472380D01*
X153042333Y-98472380D01*
X153142333Y-98500000D01*
X153175666Y-98527619D01*
D10*
X159600000Y-84450000D02*
X161350000Y-84450000D01*
X159600000Y-97050000D02*
X159600000Y-84450000D01*
X161350000Y-97050000D02*
X161350000Y-84450000D01*
X159600000Y-97050000D02*
X161350000Y-97050000D01*
D12*
X160533333Y-96660000D02*
X160533333Y-96360000D01*
X160761904Y-96720000D02*
X159961904Y-96510000D01*
X160761904Y-96300000D01*
X160723809Y-96120000D02*
X160761904Y-96060000D01*
X160761904Y-95940000D01*
X160723809Y-95880000D01*
X160647619Y-95850000D01*
X160609523Y-95850000D01*
X160533333Y-95880000D01*
X160495238Y-95940000D01*
X160495238Y-96030000D01*
X160457142Y-96090000D01*
X160380952Y-96120000D01*
X160342857Y-96120000D01*
X160266666Y-96090000D01*
X160228571Y-96030000D01*
X160228571Y-95940000D01*
X160266666Y-95880000D01*
X160761904Y-95580000D02*
X159961904Y-95580000D01*
X160457142Y-95520000D02*
X160761904Y-95340000D01*
X160228571Y-95340000D02*
X160533333Y-95580000D01*
X160723809Y-95100000D02*
X160761904Y-95010000D01*
X160761904Y-94860000D01*
X160723809Y-94800000D01*
X160685714Y-94770000D01*
X160609523Y-94740000D01*
X160533333Y-94740000D01*
X160457142Y-94770000D01*
X160419047Y-94800000D01*
X160380952Y-94860000D01*
X160342857Y-94980000D01*
X160304761Y-95040000D01*
X160266666Y-95070000D01*
X160190476Y-95100000D01*
X160114285Y-95100000D01*
X160038095Y-95070000D01*
X160000000Y-95040000D01*
X159961904Y-94980000D01*
X159961904Y-94830000D01*
X160000000Y-94740000D01*
X160761904Y-94470000D02*
X160228571Y-94470000D01*
X159961904Y-94470000D02*
X160000000Y-94500000D01*
X160038095Y-94470000D01*
X160000000Y-94440000D01*
X159961904Y-94470000D01*
X160038095Y-94470000D01*
X160228571Y-94170000D02*
X160761904Y-94170000D01*
X160304761Y-94170000D02*
X160266666Y-94140000D01*
X160228571Y-94080000D01*
X160228571Y-93990000D01*
X160266666Y-93930000D01*
X160342857Y-93900000D01*
X160761904Y-93900000D01*
X160457142Y-93600000D02*
X160457142Y-93120000D01*
X160533333Y-92850000D02*
X160533333Y-92550000D01*
X160761904Y-92910000D02*
X159961904Y-92700000D01*
X160761904Y-92490000D01*
X160228571Y-92280000D02*
X160761904Y-92280000D01*
X160304761Y-92280000D02*
X160266666Y-92250000D01*
X160228571Y-92190000D01*
X160228571Y-92100000D01*
X160266666Y-92040000D01*
X160342857Y-92010000D01*
X160761904Y-92010000D01*
X160761904Y-91440000D02*
X160342857Y-91440000D01*
X160266666Y-91470000D01*
X160228571Y-91530000D01*
X160228571Y-91650000D01*
X160266666Y-91710000D01*
X160723809Y-91440000D02*
X160761904Y-91500000D01*
X160761904Y-91650000D01*
X160723809Y-91710000D01*
X160647619Y-91740000D01*
X160571428Y-91740000D01*
X160495238Y-91710000D01*
X160457142Y-91650000D01*
X160457142Y-91500000D01*
X160419047Y-91440000D01*
X160761904Y-91050000D02*
X160723809Y-91110000D01*
X160647619Y-91140000D01*
X159961904Y-91140000D01*
X160228571Y-90870000D02*
X160761904Y-90720000D01*
X160228571Y-90570000D02*
X160761904Y-90720000D01*
X160952380Y-90780000D01*
X160990476Y-90810000D01*
X161028571Y-90870000D01*
X160228571Y-90390000D02*
X160228571Y-90060000D01*
X160761904Y-90390000D01*
X160761904Y-90060000D01*
X160723809Y-89580000D02*
X160761904Y-89640000D01*
X160761904Y-89760000D01*
X160723809Y-89820000D01*
X160647619Y-89850000D01*
X160342857Y-89850000D01*
X160266666Y-89820000D01*
X160228571Y-89760000D01*
X160228571Y-89640000D01*
X160266666Y-89580000D01*
X160342857Y-89550000D01*
X160419047Y-89550000D01*
X160495238Y-89850000D01*
X160761904Y-89280000D02*
X160228571Y-89280000D01*
X160380952Y-89280000D02*
X160304761Y-89250000D01*
X160266666Y-89220000D01*
X160228571Y-89160000D01*
X160228571Y-89100000D01*
X160457142Y-88890000D02*
X160457142Y-88410000D01*
X159961904Y-88170000D02*
X160761904Y-87750000D01*
X159961904Y-87750000D02*
X160761904Y-88170000D01*
X160723809Y-87540000D02*
X160761904Y-87450000D01*
X160761904Y-87300000D01*
X160723809Y-87240000D01*
X160685714Y-87210000D01*
X160609523Y-87180000D01*
X160533333Y-87180000D01*
X160457142Y-87210000D01*
X160419047Y-87240000D01*
X160380952Y-87300000D01*
X160342857Y-87420000D01*
X160304761Y-87480000D01*
X160266666Y-87510000D01*
X160190476Y-87540000D01*
X160114285Y-87540000D01*
X160038095Y-87510000D01*
X160000000Y-87480000D01*
X159961904Y-87420000D01*
X159961904Y-87270000D01*
X160000000Y-87180000D01*
X160457142Y-86910000D02*
X160457142Y-86430000D01*
X160761904Y-85770000D02*
X160380952Y-85980000D01*
X160761904Y-86130000D02*
X159961904Y-86130000D01*
X159961904Y-85890000D01*
X160000000Y-85830000D01*
X160038095Y-85800000D01*
X160114285Y-85770000D01*
X160228571Y-85770000D01*
X160304761Y-85800000D01*
X160342857Y-85830000D01*
X160380952Y-85890000D01*
X160380952Y-86130000D01*
X160761904Y-85500000D02*
X159961904Y-85500000D01*
X159961904Y-85260000D01*
X160000000Y-85200000D01*
X160038095Y-85170000D01*
X160114285Y-85140000D01*
X160228571Y-85140000D01*
X160304761Y-85170000D01*
X160342857Y-85200000D01*
X160380952Y-85260000D01*
X160380952Y-85500000D01*
X160761904Y-84870000D02*
X160228571Y-84870000D01*
X159961904Y-84870000D02*
X160000000Y-84900000D01*
X160038095Y-84870000D01*
X160000000Y-84840000D01*
X159961904Y-84870000D01*
X160038095Y-84870000D01*
X158466666Y-89016666D02*
X158133333Y-89250000D01*
X158466666Y-89416666D02*
X157766666Y-89416666D01*
X157766666Y-89150000D01*
X157800000Y-89083333D01*
X157833333Y-89050000D01*
X157900000Y-89016666D01*
X158000000Y-89016666D01*
X158066666Y-89050000D01*
X158100000Y-89083333D01*
X158133333Y-89150000D01*
X158133333Y-89416666D01*
X157766666Y-88783333D02*
X158466666Y-88316666D01*
X157766666Y-88316666D02*
X158466666Y-88783333D01*
X136025000Y-99650000D02*
X155025000Y-99650000D01*
X136025000Y-83650000D02*
X136025000Y-99650000D01*
X155025000Y-83650000D02*
X136025000Y-83650000D01*
X155025000Y-99650000D02*
X155025000Y-83650000D01*
X143202380Y-92261904D02*
X144011904Y-92261904D01*
X144107142Y-92214285D01*
X144154761Y-92166666D01*
X144202380Y-92071428D01*
X144202380Y-91880952D01*
X144154761Y-91785714D01*
X144107142Y-91738095D01*
X144011904Y-91690476D01*
X143202380Y-91690476D01*
X143202380Y-91309523D02*
X143202380Y-90690476D01*
X143583333Y-91023809D01*
X143583333Y-90880952D01*
X143630952Y-90785714D01*
X143678571Y-90738095D01*
X143773809Y-90690476D01*
X144011904Y-90690476D01*
X144107142Y-90738095D01*
X144154761Y-90785714D01*
X144202380Y-90880952D01*
X144202380Y-91166666D01*
X144154761Y-91261904D01*
X144107142Y-91309523D01*
X142382142Y-93745238D02*
X142429761Y-93792857D01*
X142477380Y-93935714D01*
X142477380Y-94030952D01*
X142429761Y-94173809D01*
X142334523Y-94269047D01*
X142239285Y-94316666D01*
X142048809Y-94364285D01*
X141905952Y-94364285D01*
X141715476Y-94316666D01*
X141620238Y-94269047D01*
X141525000Y-94173809D01*
X141477380Y-94030952D01*
X141477380Y-93935714D01*
X141525000Y-93792857D01*
X141572619Y-93745238D01*
X142382142Y-92745238D02*
X142429761Y-92792857D01*
X142477380Y-92935714D01*
X142477380Y-93030952D01*
X142429761Y-93173809D01*
X142334523Y-93269047D01*
X142239285Y-93316666D01*
X142048809Y-93364285D01*
X141905952Y-93364285D01*
X141715476Y-93316666D01*
X141620238Y-93269047D01*
X141525000Y-93173809D01*
X141477380Y-93030952D01*
X141477380Y-92935714D01*
X141525000Y-92792857D01*
X141572619Y-92745238D01*
X142477380Y-91792857D02*
X142477380Y-92364285D01*
X142477380Y-92078571D02*
X141477380Y-92078571D01*
X141620238Y-92173809D01*
X141715476Y-92269047D01*
X141763095Y-92364285D01*
X142477380Y-90840476D02*
X142477380Y-91411904D01*
X142477380Y-91126190D02*
X141477380Y-91126190D01*
X141620238Y-91221428D01*
X141715476Y-91316666D01*
X141763095Y-91411904D01*
X141477380Y-90221428D02*
X141477380Y-90126190D01*
X141525000Y-90030952D01*
X141572619Y-89983333D01*
X141667857Y-89935714D01*
X141858333Y-89888095D01*
X142096428Y-89888095D01*
X142286904Y-89935714D01*
X142382142Y-89983333D01*
X142429761Y-90030952D01*
X142477380Y-90126190D01*
X142477380Y-90221428D01*
X142429761Y-90316666D01*
X142382142Y-90364285D01*
X142286904Y-90411904D01*
X142096428Y-90459523D01*
X141858333Y-90459523D01*
X141667857Y-90411904D01*
X141572619Y-90364285D01*
X141525000Y-90316666D01*
X141477380Y-90221428D01*
X142477380Y-88935714D02*
X142477380Y-89507142D01*
X142477380Y-89221428D02*
X141477380Y-89221428D01*
X141620238Y-89316666D01*
X141715476Y-89411904D01*
X141763095Y-89507142D01*
M02*
