G04 #@! TF.GenerationSoftware,KiCad,Pcbnew,(5.1.6)-1*
G04 #@! TF.CreationDate,2020-11-13T23:12:39+01:00*
G04 #@! TF.ProjectId,AskSin-Analyzer-XS-RPi,41736b53-696e-42d4-916e-616c797a6572,rev?*
G04 #@! TF.SameCoordinates,Original*
G04 #@! TF.FileFunction,Legend,Bot*
G04 #@! TF.FilePolarity,Positive*
%FSLAX46Y46*%
G04 Gerber Fmt 4.6, Leading zero omitted, Abs format (unit mm)*
G04 Created by KiCad (PCBNEW (5.1.6)-1) date 2020-11-13 23:12:39*
%MOMM*%
%LPD*%
G01*
G04 APERTURE LIST*
%ADD10C,0.100000*%
%ADD11C,0.150000*%
%ADD12C,0.120000*%
G04 APERTURE END LIST*
D10*
X161593809Y-86229047D02*
X161593809Y-85919523D01*
X161403333Y-86086190D01*
X161403333Y-86014761D01*
X161379523Y-85967142D01*
X161355714Y-85943333D01*
X161308095Y-85919523D01*
X161189047Y-85919523D01*
X161141428Y-85943333D01*
X161117619Y-85967142D01*
X161093809Y-86014761D01*
X161093809Y-86157619D01*
X161117619Y-86205238D01*
X161141428Y-86229047D01*
X161593809Y-85776666D02*
X161093809Y-85610000D01*
X161593809Y-85443333D01*
X161593809Y-85324285D02*
X161593809Y-85014761D01*
X161403333Y-85181428D01*
X161403333Y-85110000D01*
X161379523Y-85062380D01*
X161355714Y-85038571D01*
X161308095Y-85014761D01*
X161189047Y-85014761D01*
X161141428Y-85038571D01*
X161117619Y-85062380D01*
X161093809Y-85110000D01*
X161093809Y-85252857D01*
X161117619Y-85300476D01*
X161141428Y-85324285D01*
X166893809Y-93353333D02*
X167131904Y-93520000D01*
X166893809Y-93639047D02*
X167393809Y-93639047D01*
X167393809Y-93448571D01*
X167370000Y-93400952D01*
X167346190Y-93377142D01*
X167298571Y-93353333D01*
X167227142Y-93353333D01*
X167179523Y-93377142D01*
X167155714Y-93400952D01*
X167131904Y-93448571D01*
X167131904Y-93639047D01*
X167393809Y-93186666D02*
X166893809Y-92853333D01*
X167393809Y-92853333D02*
X166893809Y-93186666D01*
X167373809Y-96190952D02*
X167373809Y-95905238D01*
X166873809Y-96048095D02*
X167373809Y-96048095D01*
X167373809Y-95786190D02*
X166873809Y-95452857D01*
X167373809Y-95452857D02*
X166873809Y-95786190D01*
X161560000Y-96150952D02*
X161583809Y-96198571D01*
X161583809Y-96270000D01*
X161560000Y-96341428D01*
X161512380Y-96389047D01*
X161464761Y-96412857D01*
X161369523Y-96436666D01*
X161298095Y-96436666D01*
X161202857Y-96412857D01*
X161155238Y-96389047D01*
X161107619Y-96341428D01*
X161083809Y-96270000D01*
X161083809Y-96222380D01*
X161107619Y-96150952D01*
X161131428Y-96127142D01*
X161298095Y-96127142D01*
X161298095Y-96222380D01*
X161083809Y-95912857D02*
X161583809Y-95912857D01*
X161083809Y-95627142D01*
X161583809Y-95627142D01*
X161083809Y-95389047D02*
X161583809Y-95389047D01*
X161583809Y-95270000D01*
X161560000Y-95198571D01*
X161512380Y-95150952D01*
X161464761Y-95127142D01*
X161369523Y-95103333D01*
X161298095Y-95103333D01*
X161202857Y-95127142D01*
X161155238Y-95150952D01*
X161107619Y-95198571D01*
X161083809Y-95270000D01*
X161083809Y-95389047D01*
X161093809Y-88691428D02*
X161593809Y-88691428D01*
X161593809Y-88572380D01*
X161570000Y-88500952D01*
X161522380Y-88453333D01*
X161474761Y-88429523D01*
X161379523Y-88405714D01*
X161308095Y-88405714D01*
X161212857Y-88429523D01*
X161165238Y-88453333D01*
X161117619Y-88500952D01*
X161093809Y-88572380D01*
X161093809Y-88691428D01*
X161593809Y-88262857D02*
X161593809Y-87977142D01*
X161093809Y-88120000D02*
X161593809Y-88120000D01*
X161093809Y-87524761D02*
X161331904Y-87691428D01*
X161093809Y-87810476D02*
X161593809Y-87810476D01*
X161593809Y-87620000D01*
X161570000Y-87572380D01*
X161546190Y-87548571D01*
X161498571Y-87524761D01*
X161427142Y-87524761D01*
X161379523Y-87548571D01*
X161355714Y-87572380D01*
X161331904Y-87620000D01*
X161331904Y-87810476D01*
D11*
X152919542Y-89901709D02*
X153320236Y-90632386D01*
X152589559Y-90231692D01*
X152730980Y-91221641D02*
X153013823Y-90938799D01*
X152872402Y-91080220D02*
X152306716Y-90514535D01*
X152434669Y-90548206D01*
X152535684Y-90554941D01*
X152609762Y-90534738D01*
X152464973Y-91379899D02*
X152468341Y-91430406D01*
X152518848Y-91433773D01*
X152515481Y-91383266D01*
X152464973Y-91379899D01*
X152518848Y-91433773D01*
X152023873Y-91928748D02*
X152306716Y-91645905D01*
X152165295Y-91787327D02*
X151599609Y-91221641D01*
X151727562Y-91255313D01*
X151828577Y-91262048D01*
X151902655Y-91241844D01*
X153709144Y-91021294D02*
X153662004Y-91068435D01*
X153641801Y-91142513D01*
X153645168Y-91193020D01*
X153675473Y-91270465D01*
X153759652Y-91401785D01*
X153894339Y-91536472D01*
X154025659Y-91620652D01*
X154103104Y-91650956D01*
X154153612Y-91654323D01*
X154227689Y-91634120D01*
X154274830Y-91586980D01*
X154295033Y-91512902D01*
X154291666Y-91462394D01*
X154261361Y-91384949D01*
X154177182Y-91253629D01*
X154042495Y-91118942D01*
X153911175Y-91034763D01*
X153833730Y-91004458D01*
X153783222Y-91001091D01*
X153709144Y-91021294D01*
X153503747Y-91711565D02*
X153523950Y-91637487D01*
X153520583Y-91586980D01*
X153490278Y-91509535D01*
X153463341Y-91482597D01*
X153385896Y-91452293D01*
X153335388Y-91448926D01*
X153261310Y-91469129D01*
X153167029Y-91563410D01*
X153146826Y-91637487D01*
X153150193Y-91687995D01*
X153180498Y-91765440D01*
X153207435Y-91792377D01*
X153284880Y-91822682D01*
X153335388Y-91826049D01*
X153409466Y-91805846D01*
X153503747Y-91711565D01*
X153577825Y-91691362D01*
X153628332Y-91694729D01*
X153705777Y-91725034D01*
X153813527Y-91832784D01*
X153843831Y-91910229D01*
X153847199Y-91960736D01*
X153826996Y-92034814D01*
X153732715Y-92129095D01*
X153658637Y-92149298D01*
X153608129Y-92145931D01*
X153530684Y-92115626D01*
X153422935Y-92007877D01*
X153392630Y-91930432D01*
X153389263Y-91879924D01*
X153409466Y-91805846D01*
X152480126Y-92196438D02*
X153631699Y-92499484D01*
X152419516Y-92418672D02*
X152369009Y-92415305D01*
X152294931Y-92435508D01*
X152177080Y-92553359D01*
X152156877Y-92627437D01*
X152160244Y-92677945D01*
X152190548Y-92755390D01*
X152244423Y-92809264D01*
X152348806Y-92866506D01*
X152954897Y-92906912D01*
X152648484Y-93213325D01*
X151776386Y-92954053D02*
X151729245Y-93001193D01*
X151709042Y-93075271D01*
X151712410Y-93125779D01*
X151742714Y-93203224D01*
X151826894Y-93334544D01*
X151961581Y-93469231D01*
X152092900Y-93553410D01*
X152170345Y-93583715D01*
X152220853Y-93587082D01*
X152294931Y-93566879D01*
X152342071Y-93519738D01*
X152362274Y-93445660D01*
X152358907Y-93395153D01*
X152328603Y-93317708D01*
X152244423Y-93186388D01*
X152109736Y-93051701D01*
X151978416Y-92967522D01*
X151900971Y-92937217D01*
X151850464Y-92933850D01*
X151776386Y-92954053D01*
X151375692Y-94486118D02*
X150810007Y-93920432D01*
X151348755Y-94459180D02*
X151422833Y-94438977D01*
X151517113Y-94344696D01*
X151537316Y-94270618D01*
X151533949Y-94220111D01*
X151503645Y-94142666D01*
X151342020Y-93981041D01*
X151264575Y-93950737D01*
X151214068Y-93947370D01*
X151139990Y-93967573D01*
X151045709Y-94061853D01*
X151025506Y-94135931D01*
X150924491Y-94883444D02*
X150998568Y-94863241D01*
X151092849Y-94768960D01*
X151113052Y-94694882D01*
X151082748Y-94617437D01*
X150867249Y-94401938D01*
X150789804Y-94371634D01*
X150715726Y-94391837D01*
X150621445Y-94486118D01*
X150601242Y-94560195D01*
X150631546Y-94637640D01*
X150685421Y-94691515D01*
X150974998Y-94509688D01*
X150715726Y-95146084D02*
X150338602Y-94768960D01*
X150446352Y-94876710D02*
X150368907Y-94846405D01*
X150318399Y-94843038D01*
X150244321Y-94863241D01*
X150197181Y-94910382D01*
X150193814Y-95236998D02*
X149816690Y-95614121D01*
X149419363Y-95688199D02*
X149985049Y-96253885D01*
X149446301Y-95715136D02*
X149372223Y-95735340D01*
X149277942Y-95829620D01*
X149257739Y-95903698D01*
X149261106Y-95954206D01*
X149291411Y-96031651D01*
X149453035Y-96193275D01*
X149530480Y-96223580D01*
X149580988Y-96226947D01*
X149655066Y-96206744D01*
X149749346Y-96112463D01*
X149769550Y-96038385D01*
X149018669Y-96088893D02*
X149301512Y-96560297D01*
X148937857Y-96385204D01*
X149112950Y-96748859D01*
X148641546Y-96466017D01*
X154986987Y-92676261D02*
X155037495Y-92679628D01*
X155135143Y-92635855D01*
X155182283Y-92588714D01*
X155226057Y-92491066D01*
X155219322Y-92390051D01*
X155189018Y-92312606D01*
X155104838Y-92181286D01*
X155024026Y-92100474D01*
X154892706Y-92016294D01*
X154815261Y-91985990D01*
X154714246Y-91979256D01*
X154616598Y-92023029D01*
X154569458Y-92070169D01*
X154525684Y-92167817D01*
X154529051Y-92218325D01*
X154492013Y-93171236D02*
X154542520Y-93174603D01*
X154640168Y-93130829D01*
X154687309Y-93083689D01*
X154731082Y-92986041D01*
X154724348Y-92885026D01*
X154694043Y-92807581D01*
X154609864Y-92676261D01*
X154529051Y-92595449D01*
X154397732Y-92511269D01*
X154320287Y-92480965D01*
X154219271Y-92474230D01*
X154121623Y-92518004D01*
X154074483Y-92565144D01*
X154030710Y-92662792D01*
X154034077Y-92713300D01*
X153495329Y-93683046D02*
X153451555Y-93780694D01*
X153454923Y-93831202D01*
X153485227Y-93908647D01*
X153566039Y-93989459D01*
X153643484Y-94019764D01*
X153693992Y-94023131D01*
X153768070Y-94002928D01*
X153956632Y-93814366D01*
X153390946Y-93248681D01*
X153225955Y-93413672D01*
X153205752Y-93487750D01*
X153209119Y-93538258D01*
X153239423Y-93615703D01*
X153293298Y-93669577D01*
X153370743Y-93699882D01*
X153421251Y-93703249D01*
X153495329Y-93683046D01*
X153660320Y-93518055D01*
X153098002Y-94134248D02*
X153367376Y-94403622D01*
X152966682Y-93672945D02*
X153098002Y-94134248D01*
X152636699Y-94002928D01*
X152821894Y-94518106D02*
X152444770Y-94895229D01*
X152424567Y-95346431D02*
X151858882Y-94780745D01*
X152141724Y-95629273D01*
X151576039Y-95063588D01*
X151569304Y-96093944D02*
X151619812Y-96097311D01*
X151717460Y-96053537D01*
X151764601Y-96006397D01*
X151808374Y-95908749D01*
X151801640Y-95807734D01*
X151771335Y-95730289D01*
X151687156Y-95598969D01*
X151606343Y-95518157D01*
X151475024Y-95433977D01*
X151397579Y-95403673D01*
X151296563Y-95396938D01*
X151198915Y-95440712D01*
X151151775Y-95487852D01*
X151108001Y-95585500D01*
X151111369Y-95636008D01*
X151195548Y-96144451D02*
X150818424Y-96521575D01*
X150794854Y-96922269D02*
X150751081Y-97019917D01*
X150633230Y-97137768D01*
X150559152Y-97157971D01*
X150508644Y-97154604D01*
X150431199Y-97124299D01*
X150377324Y-97070424D01*
X150347020Y-96992979D01*
X150343653Y-96942472D01*
X150363856Y-96868394D01*
X150431199Y-96747176D01*
X150451402Y-96673098D01*
X150448035Y-96622590D01*
X150417731Y-96545145D01*
X150363856Y-96491270D01*
X150286411Y-96460966D01*
X150235903Y-96457598D01*
X150161825Y-96477802D01*
X150043974Y-96595653D01*
X150000201Y-96693301D01*
X150188763Y-97258986D02*
X149953060Y-97494688D01*
X150397528Y-97373470D02*
X149666851Y-96972776D01*
X150067544Y-97703453D01*
X148936174Y-98080577D02*
X149313297Y-98457700D01*
X148838525Y-97747227D02*
X149360438Y-98033436D01*
X149054025Y-98339849D01*
X149000150Y-98663098D02*
X149003517Y-98713606D01*
X149054025Y-98716973D01*
X149050657Y-98666465D01*
X149000150Y-98663098D01*
X149054025Y-98716973D01*
X148158356Y-98481271D02*
X148111216Y-98528411D01*
X148091013Y-98602489D01*
X148094380Y-98652997D01*
X148124684Y-98730442D01*
X148208864Y-98861762D01*
X148343551Y-98996449D01*
X148474871Y-99080628D01*
X148552316Y-99110932D01*
X148602823Y-99114300D01*
X148676901Y-99094097D01*
X148724041Y-99046956D01*
X148744245Y-98972878D01*
X148740877Y-98922371D01*
X148710573Y-98844926D01*
X148626393Y-98713606D01*
X148491706Y-98578919D01*
X148360387Y-98494739D01*
X148282942Y-98464435D01*
X148232434Y-98461068D01*
X148158356Y-98481271D01*
X137238095Y-87411904D02*
X137504761Y-87030952D01*
X137695238Y-87411904D02*
X137695238Y-86611904D01*
X137390476Y-86611904D01*
X137314285Y-86650000D01*
X137276190Y-86688095D01*
X137238095Y-86764285D01*
X137238095Y-86878571D01*
X137276190Y-86954761D01*
X137314285Y-86992857D01*
X137390476Y-87030952D01*
X137695238Y-87030952D01*
X136933333Y-87373809D02*
X136819047Y-87411904D01*
X136628571Y-87411904D01*
X136552380Y-87373809D01*
X136514285Y-87335714D01*
X136476190Y-87259523D01*
X136476190Y-87183333D01*
X136514285Y-87107142D01*
X136552380Y-87069047D01*
X136628571Y-87030952D01*
X136780952Y-86992857D01*
X136857142Y-86954761D01*
X136895238Y-86916666D01*
X136933333Y-86840476D01*
X136933333Y-86764285D01*
X136895238Y-86688095D01*
X136857142Y-86650000D01*
X136780952Y-86611904D01*
X136590476Y-86611904D01*
X136476190Y-86650000D01*
X136247619Y-86611904D02*
X135790476Y-86611904D01*
X136019047Y-87411904D02*
X136019047Y-86611904D01*
D12*
X135700000Y-86050000D02*
X137700000Y-86050000D01*
X137700000Y-86050000D02*
X137700000Y-84050000D01*
X137700000Y-84050000D02*
X135700000Y-84050000D01*
X135700000Y-84050000D02*
X135700000Y-86050000D01*
X159610000Y-91920000D02*
X158150000Y-91920000D01*
X159610000Y-95080000D02*
X157450000Y-95080000D01*
X159610000Y-95080000D02*
X159610000Y-94150000D01*
X159610000Y-91920000D02*
X159610000Y-92850000D01*
X158711252Y-88860000D02*
X158188748Y-88860000D01*
X158711252Y-87440000D02*
X158188748Y-87440000D01*
X137235000Y-97011252D02*
X137235000Y-96488748D01*
X135815000Y-97011252D02*
X135815000Y-96488748D01*
X140382687Y-85613221D02*
X140013221Y-85982687D01*
X141386779Y-86617313D02*
X141017313Y-86986779D01*
X158610000Y-97911252D02*
X158610000Y-97388748D01*
X157190000Y-97911252D02*
X157190000Y-97388748D01*
X141036779Y-95532687D02*
X140667313Y-95163221D01*
X140032687Y-96536779D02*
X139663221Y-96167313D01*
X150986779Y-85932687D02*
X150617313Y-85563221D01*
X149982687Y-86936779D02*
X149613221Y-86567313D01*
D11*
X145450000Y-86023476D02*
X145609099Y-86182575D01*
X140323476Y-91150000D02*
X140553286Y-91379810D01*
X145450000Y-96276524D02*
X145220190Y-96046714D01*
X150576524Y-91150000D02*
X150346714Y-90920190D01*
X145450000Y-86023476D02*
X145220190Y-86253286D01*
X150576524Y-91150000D02*
X150346714Y-91379810D01*
X145450000Y-96276524D02*
X145679810Y-96046714D01*
X140323476Y-91150000D02*
X140553286Y-90920190D01*
X145609099Y-86182575D02*
X146616726Y-85174948D01*
D12*
X158188748Y-86610000D02*
X158711252Y-86610000D01*
X158188748Y-85190000D02*
X158711252Y-85190000D01*
X158711252Y-89690000D02*
X158188748Y-89690000D01*
X158711252Y-91110000D02*
X158188748Y-91110000D01*
D11*
X155066666Y-84056666D02*
X154633333Y-84056666D01*
X154866666Y-84323333D01*
X154766666Y-84323333D01*
X154700000Y-84356666D01*
X154666666Y-84390000D01*
X154633333Y-84456666D01*
X154633333Y-84623333D01*
X154666666Y-84690000D01*
X154700000Y-84723333D01*
X154766666Y-84756666D01*
X154966666Y-84756666D01*
X155033333Y-84723333D01*
X155066666Y-84690000D01*
X154433333Y-84056666D02*
X154200000Y-84756666D01*
X153966666Y-84056666D01*
X153800000Y-84056666D02*
X153366666Y-84056666D01*
X153600000Y-84323333D01*
X153500000Y-84323333D01*
X153433333Y-84356666D01*
X153400000Y-84390000D01*
X153366666Y-84456666D01*
X153366666Y-84623333D01*
X153400000Y-84690000D01*
X153433333Y-84723333D01*
X153500000Y-84756666D01*
X153700000Y-84756666D01*
X153766666Y-84723333D01*
X153800000Y-84690000D01*
X143950000Y-84666666D02*
X143950000Y-83966666D01*
X143783333Y-83966666D01*
X143683333Y-84000000D01*
X143616666Y-84066666D01*
X143583333Y-84133333D01*
X143550000Y-84266666D01*
X143550000Y-84366666D01*
X143583333Y-84500000D01*
X143616666Y-84566666D01*
X143683333Y-84633333D01*
X143783333Y-84666666D01*
X143950000Y-84666666D01*
X143350000Y-83966666D02*
X142950000Y-83966666D01*
X143150000Y-84666666D02*
X143150000Y-83966666D01*
X142316666Y-84666666D02*
X142550000Y-84333333D01*
X142716666Y-84666666D02*
X142716666Y-83966666D01*
X142450000Y-83966666D01*
X142383333Y-84000000D01*
X142350000Y-84033333D01*
X142316666Y-84100000D01*
X142316666Y-84200000D01*
X142350000Y-84266666D01*
X142383333Y-84300000D01*
X142450000Y-84333333D01*
X142716666Y-84333333D01*
X156959523Y-93161904D02*
X156959523Y-93809523D01*
X156921428Y-93885714D01*
X156883333Y-93923809D01*
X156807142Y-93961904D01*
X156654761Y-93961904D01*
X156578571Y-93923809D01*
X156540476Y-93885714D01*
X156502380Y-93809523D01*
X156502380Y-93161904D01*
X155702380Y-93961904D02*
X156159523Y-93961904D01*
X155930952Y-93961904D02*
X155930952Y-93161904D01*
X156007142Y-93276190D01*
X156083333Y-93352380D01*
X156159523Y-93390476D01*
X156033333Y-88511904D02*
X156414285Y-88511904D01*
X156414285Y-87711904D01*
X155347619Y-88511904D02*
X155804761Y-88511904D01*
X155576190Y-88511904D02*
X155576190Y-87711904D01*
X155652380Y-87826190D01*
X155728571Y-87902380D01*
X155804761Y-87940476D01*
X136708333Y-94786904D02*
X136975000Y-94405952D01*
X137165476Y-94786904D02*
X137165476Y-93986904D01*
X136860714Y-93986904D01*
X136784523Y-94025000D01*
X136746428Y-94063095D01*
X136708333Y-94139285D01*
X136708333Y-94253571D01*
X136746428Y-94329761D01*
X136784523Y-94367857D01*
X136860714Y-94405952D01*
X137165476Y-94405952D01*
X136403571Y-94063095D02*
X136365476Y-94025000D01*
X136289285Y-93986904D01*
X136098809Y-93986904D01*
X136022619Y-94025000D01*
X135984523Y-94063095D01*
X135946428Y-94139285D01*
X135946428Y-94215476D01*
X135984523Y-94329761D01*
X136441666Y-94786904D01*
X135946428Y-94786904D01*
X139058333Y-88711903D02*
X139325000Y-88330951D01*
X139515476Y-88711903D02*
X139515476Y-87911903D01*
X139210714Y-87911903D01*
X139134523Y-87949999D01*
X139096428Y-87988094D01*
X139058333Y-88064284D01*
X139058333Y-88178570D01*
X139096428Y-88254760D01*
X139134523Y-88292856D01*
X139210714Y-88330951D01*
X139515476Y-88330951D01*
X138296428Y-88711903D02*
X138753571Y-88711903D01*
X138525000Y-88711903D02*
X138525000Y-87911903D01*
X138601190Y-88026189D01*
X138677380Y-88102379D01*
X138753571Y-88140475D01*
X156233333Y-97935714D02*
X156271428Y-97973809D01*
X156385714Y-98011904D01*
X156461904Y-98011904D01*
X156576190Y-97973809D01*
X156652380Y-97897619D01*
X156690476Y-97821428D01*
X156728571Y-97669047D01*
X156728571Y-97554761D01*
X156690476Y-97402380D01*
X156652380Y-97326190D01*
X156576190Y-97250000D01*
X156461904Y-97211904D01*
X156385714Y-97211904D01*
X156271428Y-97250000D01*
X156233333Y-97288095D01*
X155509523Y-97211904D02*
X155890476Y-97211904D01*
X155928571Y-97592857D01*
X155890476Y-97554761D01*
X155814285Y-97516666D01*
X155623809Y-97516666D01*
X155547619Y-97554761D01*
X155509523Y-97592857D01*
X155471428Y-97669047D01*
X155471428Y-97859523D01*
X155509523Y-97935714D01*
X155547619Y-97973809D01*
X155623809Y-98011904D01*
X155814285Y-98011904D01*
X155890476Y-97973809D01*
X155928571Y-97935714D01*
X138833333Y-94160714D02*
X138871428Y-94198809D01*
X138985714Y-94236904D01*
X139061904Y-94236904D01*
X139176190Y-94198809D01*
X139252380Y-94122619D01*
X139290476Y-94046428D01*
X139328571Y-93894047D01*
X139328571Y-93779761D01*
X139290476Y-93627380D01*
X139252380Y-93551190D01*
X139176190Y-93475000D01*
X139061904Y-93436904D01*
X138985714Y-93436904D01*
X138871428Y-93475000D01*
X138833333Y-93513095D01*
X138147619Y-93703571D02*
X138147619Y-94236904D01*
X138338095Y-93398809D02*
X138528571Y-93970238D01*
X138033333Y-93970238D01*
X148333333Y-84885714D02*
X148371428Y-84923809D01*
X148485714Y-84961904D01*
X148561904Y-84961904D01*
X148676190Y-84923809D01*
X148752380Y-84847619D01*
X148790476Y-84771428D01*
X148828571Y-84619047D01*
X148828571Y-84504761D01*
X148790476Y-84352380D01*
X148752380Y-84276190D01*
X148676190Y-84200000D01*
X148561904Y-84161904D01*
X148485714Y-84161904D01*
X148371428Y-84200000D01*
X148333333Y-84238095D01*
X148066666Y-84161904D02*
X147571428Y-84161904D01*
X147838095Y-84466666D01*
X147723809Y-84466666D01*
X147647619Y-84504761D01*
X147609523Y-84542857D01*
X147571428Y-84619047D01*
X147571428Y-84809523D01*
X147609523Y-84885714D01*
X147647619Y-84923809D01*
X147723809Y-84961904D01*
X147952380Y-84961904D01*
X148028571Y-84923809D01*
X148066666Y-84885714D01*
X146076522Y-88574026D02*
X146648942Y-89146446D01*
X146682614Y-89247461D01*
X146682614Y-89314805D01*
X146648942Y-89415820D01*
X146514255Y-89550507D01*
X146413240Y-89584179D01*
X146345896Y-89584179D01*
X146244881Y-89550507D01*
X145672461Y-88978087D01*
X145436759Y-89348477D02*
X145369416Y-89348477D01*
X145268400Y-89382148D01*
X145100042Y-89550507D01*
X145066370Y-89651522D01*
X145066370Y-89718866D01*
X145100042Y-89819881D01*
X145167385Y-89887225D01*
X145302072Y-89954568D01*
X146110194Y-89954568D01*
X145672461Y-90392301D01*
X155958333Y-86185714D02*
X155996428Y-86223809D01*
X156110714Y-86261904D01*
X156186904Y-86261904D01*
X156301190Y-86223809D01*
X156377380Y-86147619D01*
X156415476Y-86071428D01*
X156453571Y-85919047D01*
X156453571Y-85804761D01*
X156415476Y-85652380D01*
X156377380Y-85576190D01*
X156301190Y-85500000D01*
X156186904Y-85461904D01*
X156110714Y-85461904D01*
X155996428Y-85500000D01*
X155958333Y-85538095D01*
X155653571Y-85538095D02*
X155615476Y-85500000D01*
X155539285Y-85461904D01*
X155348809Y-85461904D01*
X155272619Y-85500000D01*
X155234523Y-85538095D01*
X155196428Y-85614285D01*
X155196428Y-85690476D01*
X155234523Y-85804761D01*
X155691666Y-86261904D01*
X155196428Y-86261904D01*
X155933333Y-90685714D02*
X155971428Y-90723809D01*
X156085714Y-90761904D01*
X156161904Y-90761904D01*
X156276190Y-90723809D01*
X156352380Y-90647619D01*
X156390476Y-90571428D01*
X156428571Y-90419047D01*
X156428571Y-90304761D01*
X156390476Y-90152380D01*
X156352380Y-90076190D01*
X156276190Y-90000000D01*
X156161904Y-89961904D01*
X156085714Y-89961904D01*
X155971428Y-90000000D01*
X155933333Y-90038095D01*
X155171428Y-90761904D02*
X155628571Y-90761904D01*
X155400000Y-90761904D02*
X155400000Y-89961904D01*
X155476190Y-90076190D01*
X155552380Y-90152380D01*
X155628571Y-90190476D01*
M02*
