G04 #@! TF.GenerationSoftware,KiCad,Pcbnew,(5.1.6)-1*
G04 #@! TF.CreationDate,2020-11-13T23:12:39+01:00*
G04 #@! TF.ProjectId,AskSin-Analyzer-XS-RPi,41736b53-696e-42d4-916e-616c797a6572,rev?*
G04 #@! TF.SameCoordinates,Original*
G04 #@! TF.FileFunction,Copper,L2,Bot*
G04 #@! TF.FilePolarity,Positive*
%FSLAX46Y46*%
G04 Gerber Fmt 4.6, Leading zero omitted, Abs format (unit mm)*
G04 Created by KiCad (PCBNEW (5.1.6)-1) date 2020-11-13 23:12:39*
%MOMM*%
%LPD*%
G01*
G04 APERTURE LIST*
G04 #@! TA.AperFunction,NonConductor*
%ADD10C,0.110000*%
G04 #@! TD*
G04 #@! TA.AperFunction,SMDPad,CuDef*
%ADD11R,0.500000X0.800000*%
G04 #@! TD*
G04 #@! TA.AperFunction,SMDPad,CuDef*
%ADD12R,0.800000X0.500000*%
G04 #@! TD*
G04 #@! TA.AperFunction,SMDPad,CuDef*
%ADD13R,1.500000X1.500000*%
G04 #@! TD*
G04 #@! TA.AperFunction,SMDPad,CuDef*
%ADD14R,1.200000X0.800000*%
G04 #@! TD*
G04 #@! TA.AperFunction,ComponentPad*
%ADD15O,1.700000X1.700000*%
G04 #@! TD*
G04 #@! TA.AperFunction,ComponentPad*
%ADD16R,1.700000X1.700000*%
G04 #@! TD*
G04 #@! TA.AperFunction,SMDPad,CuDef*
%ADD17C,0.100000*%
G04 #@! TD*
G04 #@! TA.AperFunction,ViaPad*
%ADD18C,0.600000*%
G04 #@! TD*
G04 #@! TA.AperFunction,ViaPad*
%ADD19C,0.800000*%
G04 #@! TD*
G04 #@! TA.AperFunction,Conductor*
%ADD20C,0.250000*%
G04 #@! TD*
G04 #@! TA.AperFunction,Conductor*
%ADD21C,0.300000*%
G04 #@! TD*
G04 APERTURE END LIST*
D10*
X145557142Y-99500000D02*
X145585714Y-99533333D01*
X145671428Y-99566666D01*
X145728571Y-99566666D01*
X145814285Y-99533333D01*
X145871428Y-99466666D01*
X145900000Y-99400000D01*
X145928571Y-99266666D01*
X145928571Y-99166666D01*
X145900000Y-99033333D01*
X145871428Y-98966666D01*
X145814285Y-98900000D01*
X145728571Y-98866666D01*
X145671428Y-98866666D01*
X145585714Y-98900000D01*
X145557142Y-98933333D01*
X144957142Y-99500000D02*
X144985714Y-99533333D01*
X145071428Y-99566666D01*
X145128571Y-99566666D01*
X145214285Y-99533333D01*
X145271428Y-99466666D01*
X145300000Y-99400000D01*
X145328571Y-99266666D01*
X145328571Y-99166666D01*
X145300000Y-99033333D01*
X145271428Y-98966666D01*
X145214285Y-98900000D01*
X145128571Y-98866666D01*
X145071428Y-98866666D01*
X144985714Y-98900000D01*
X144957142Y-98933333D01*
X144042857Y-99200000D02*
X143957142Y-99233333D01*
X143928571Y-99266666D01*
X143900000Y-99333333D01*
X143900000Y-99433333D01*
X143928571Y-99500000D01*
X143957142Y-99533333D01*
X144014285Y-99566666D01*
X144242857Y-99566666D01*
X144242857Y-98866666D01*
X144042857Y-98866666D01*
X143985714Y-98900000D01*
X143957142Y-98933333D01*
X143928571Y-99000000D01*
X143928571Y-99066666D01*
X143957142Y-99133333D01*
X143985714Y-99166666D01*
X144042857Y-99200000D01*
X144242857Y-99200000D01*
X143528571Y-99233333D02*
X143528571Y-99566666D01*
X143728571Y-98866666D02*
X143528571Y-99233333D01*
X143328571Y-98866666D01*
X143128571Y-99300000D02*
X142671428Y-99300000D01*
X142385714Y-99566666D02*
X142385714Y-98866666D01*
X142042857Y-99566666D01*
X142042857Y-98866666D01*
X141414285Y-99500000D02*
X141442857Y-99533333D01*
X141528571Y-99566666D01*
X141585714Y-99566666D01*
X141671428Y-99533333D01*
X141728571Y-99466666D01*
X141757142Y-99400000D01*
X141785714Y-99266666D01*
X141785714Y-99166666D01*
X141757142Y-99033333D01*
X141728571Y-98966666D01*
X141671428Y-98900000D01*
X141585714Y-98866666D01*
X141528571Y-98866666D01*
X141442857Y-98900000D01*
X141414285Y-98933333D01*
X141157142Y-99300000D02*
X140700000Y-99300000D01*
X140442857Y-99533333D02*
X140357142Y-99566666D01*
X140214285Y-99566666D01*
X140157142Y-99533333D01*
X140128571Y-99500000D01*
X140100000Y-99433333D01*
X140100000Y-99366666D01*
X140128571Y-99300000D01*
X140157142Y-99266666D01*
X140214285Y-99233333D01*
X140328571Y-99200000D01*
X140385714Y-99166666D01*
X140414285Y-99133333D01*
X140442857Y-99066666D01*
X140442857Y-99000000D01*
X140414285Y-98933333D01*
X140385714Y-98900000D01*
X140328571Y-98866666D01*
X140185714Y-98866666D01*
X140100000Y-98900000D01*
X139871428Y-99366666D02*
X139585714Y-99366666D01*
X139928571Y-99566666D02*
X139728571Y-98866666D01*
X139528571Y-99566666D01*
X138614285Y-99100000D02*
X138614285Y-99566666D01*
X138757142Y-98833333D02*
X138900000Y-99333333D01*
X138528571Y-99333333D01*
X138300000Y-99500000D02*
X138271428Y-99533333D01*
X138300000Y-99566666D01*
X138328571Y-99533333D01*
X138300000Y-99500000D01*
X138300000Y-99566666D01*
X137900000Y-98866666D02*
X137842857Y-98866666D01*
X137785714Y-98900000D01*
X137757142Y-98933333D01*
X137728571Y-99000000D01*
X137700000Y-99133333D01*
X137700000Y-99300000D01*
X137728571Y-99433333D01*
X137757142Y-99500000D01*
X137785714Y-99533333D01*
X137842857Y-99566666D01*
X137900000Y-99566666D01*
X137957142Y-99533333D01*
X137985714Y-99500000D01*
X138014285Y-99433333D01*
X138042857Y-99300000D01*
X138042857Y-99133333D01*
X138014285Y-99000000D01*
X137985714Y-98933333D01*
X137957142Y-98900000D01*
X137900000Y-98866666D01*
D11*
X154200000Y-86700000D03*
X154200000Y-85700000D03*
D12*
X144800000Y-84300000D03*
X145850000Y-84300000D03*
D13*
X136700000Y-85050000D03*
D14*
X157700000Y-94450000D03*
X157700000Y-92550000D03*
X159950000Y-93500000D03*
G04 #@! TA.AperFunction,SMDPad,CuDef*
G36*
G01*
X160050000Y-87699999D02*
X160050000Y-88600001D01*
G75*
G02*
X159800001Y-88850000I-249999J0D01*
G01*
X159149999Y-88850000D01*
G75*
G02*
X158900000Y-88600001I0J249999D01*
G01*
X158900000Y-87699999D01*
G75*
G02*
X159149999Y-87450000I249999J0D01*
G01*
X159800001Y-87450000D01*
G75*
G02*
X160050000Y-87699999I0J-249999D01*
G01*
G37*
G04 #@! TD.AperFunction*
G04 #@! TA.AperFunction,SMDPad,CuDef*
G36*
G01*
X158000000Y-87699999D02*
X158000000Y-88600001D01*
G75*
G02*
X157750001Y-88850000I-249999J0D01*
G01*
X157099999Y-88850000D01*
G75*
G02*
X156850000Y-88600001I0J249999D01*
G01*
X156850000Y-87699999D01*
G75*
G02*
X157099999Y-87450000I249999J0D01*
G01*
X157750001Y-87450000D01*
G75*
G02*
X158000000Y-87699999I0J-249999D01*
G01*
G37*
G04 #@! TD.AperFunction*
D15*
X165540000Y-95760000D03*
X163000000Y-95760000D03*
X165540000Y-93220000D03*
X163000000Y-93220000D03*
X165540000Y-90680000D03*
X163000000Y-90680000D03*
X165540000Y-88140000D03*
X163000000Y-88140000D03*
X165540000Y-85600000D03*
D16*
X163000000Y-85600000D03*
G04 #@! TA.AperFunction,SMDPad,CuDef*
G36*
G01*
X136975001Y-96300000D02*
X136074999Y-96300000D01*
G75*
G02*
X135825000Y-96050001I0J249999D01*
G01*
X135825000Y-95399999D01*
G75*
G02*
X136074999Y-95150000I249999J0D01*
G01*
X136975001Y-95150000D01*
G75*
G02*
X137225000Y-95399999I0J-249999D01*
G01*
X137225000Y-96050001D01*
G75*
G02*
X136975001Y-96300000I-249999J0D01*
G01*
G37*
G04 #@! TD.AperFunction*
G04 #@! TA.AperFunction,SMDPad,CuDef*
G36*
G01*
X136975001Y-98350000D02*
X136074999Y-98350000D01*
G75*
G02*
X135825000Y-98100001I0J249999D01*
G01*
X135825000Y-97449999D01*
G75*
G02*
X136074999Y-97200000I249999J0D01*
G01*
X136975001Y-97200000D01*
G75*
G02*
X137225000Y-97449999I0J-249999D01*
G01*
X137225000Y-98100001D01*
G75*
G02*
X136975001Y-98350000I-249999J0D01*
G01*
G37*
G04 #@! TD.AperFunction*
G04 #@! TA.AperFunction,SMDPad,CuDef*
G36*
G01*
X140063604Y-86299999D02*
X140700001Y-86936396D01*
G75*
G02*
X140700001Y-87289948I-176776J-176776D01*
G01*
X140240380Y-87749569D01*
G75*
G02*
X139886828Y-87749569I-176776J176776D01*
G01*
X139250431Y-87113172D01*
G75*
G02*
X139250431Y-86759620I176776J176776D01*
G01*
X139710052Y-86299999D01*
G75*
G02*
X140063604Y-86299999I176776J-176776D01*
G01*
G37*
G04 #@! TD.AperFunction*
G04 #@! TA.AperFunction,SMDPad,CuDef*
G36*
G01*
X141513172Y-84850431D02*
X142149569Y-85486828D01*
G75*
G02*
X142149569Y-85840380I-176776J-176776D01*
G01*
X141689948Y-86300001D01*
G75*
G02*
X141336396Y-86300001I-176776J176776D01*
G01*
X140699999Y-85663604D01*
G75*
G02*
X140699999Y-85310052I176776J176776D01*
G01*
X141159620Y-84850431D01*
G75*
G02*
X141513172Y-84850431I176776J-176776D01*
G01*
G37*
G04 #@! TD.AperFunction*
G04 #@! TA.AperFunction,SMDPad,CuDef*
G36*
G01*
X158350001Y-97200000D02*
X157449999Y-97200000D01*
G75*
G02*
X157200000Y-96950001I0J249999D01*
G01*
X157200000Y-96299999D01*
G75*
G02*
X157449999Y-96050000I249999J0D01*
G01*
X158350001Y-96050000D01*
G75*
G02*
X158600000Y-96299999I0J-249999D01*
G01*
X158600000Y-96950001D01*
G75*
G02*
X158350001Y-97200000I-249999J0D01*
G01*
G37*
G04 #@! TD.AperFunction*
G04 #@! TA.AperFunction,SMDPad,CuDef*
G36*
G01*
X158350001Y-99250000D02*
X157449999Y-99250000D01*
G75*
G02*
X157200000Y-99000001I0J249999D01*
G01*
X157200000Y-98349999D01*
G75*
G02*
X157449999Y-98100000I249999J0D01*
G01*
X158350001Y-98100000D01*
G75*
G02*
X158600000Y-98349999I0J-249999D01*
G01*
X158600000Y-99000001D01*
G75*
G02*
X158350001Y-99250000I-249999J0D01*
G01*
G37*
G04 #@! TD.AperFunction*
G04 #@! TA.AperFunction,SMDPad,CuDef*
G36*
G01*
X140350001Y-95213604D02*
X139713604Y-95850001D01*
G75*
G02*
X139360052Y-95850001I-176776J176776D01*
G01*
X138900431Y-95390380D01*
G75*
G02*
X138900431Y-95036828I176776J176776D01*
G01*
X139536828Y-94400431D01*
G75*
G02*
X139890380Y-94400431I176776J-176776D01*
G01*
X140350001Y-94860052D01*
G75*
G02*
X140350001Y-95213604I-176776J-176776D01*
G01*
G37*
G04 #@! TD.AperFunction*
G04 #@! TA.AperFunction,SMDPad,CuDef*
G36*
G01*
X141799569Y-96663172D02*
X141163172Y-97299569D01*
G75*
G02*
X140809620Y-97299569I-176776J176776D01*
G01*
X140349999Y-96839948D01*
G75*
G02*
X140349999Y-96486396I176776J176776D01*
G01*
X140986396Y-95849999D01*
G75*
G02*
X141339948Y-95849999I176776J-176776D01*
G01*
X141799569Y-96309620D01*
G75*
G02*
X141799569Y-96663172I-176776J-176776D01*
G01*
G37*
G04 #@! TD.AperFunction*
G04 #@! TA.AperFunction,SMDPad,CuDef*
G36*
G01*
X150300001Y-85613604D02*
X149663604Y-86250001D01*
G75*
G02*
X149310052Y-86250001I-176776J176776D01*
G01*
X148850431Y-85790380D01*
G75*
G02*
X148850431Y-85436828I176776J176776D01*
G01*
X149486828Y-84800431D01*
G75*
G02*
X149840380Y-84800431I176776J-176776D01*
G01*
X150300001Y-85260052D01*
G75*
G02*
X150300001Y-85613604I-176776J-176776D01*
G01*
G37*
G04 #@! TD.AperFunction*
G04 #@! TA.AperFunction,SMDPad,CuDef*
G36*
G01*
X151749569Y-87063172D02*
X151113172Y-87699569D01*
G75*
G02*
X150759620Y-87699569I-176776J176776D01*
G01*
X150299999Y-87239948D01*
G75*
G02*
X150299999Y-86886396I176776J176776D01*
G01*
X150936396Y-86249999D01*
G75*
G02*
X151289948Y-86249999I176776J-176776D01*
G01*
X151749569Y-86709620D01*
G75*
G02*
X151749569Y-87063172I-176776J-176776D01*
G01*
G37*
G04 #@! TD.AperFunction*
G04 #@! TA.AperFunction,SMDPad,CuDef*
D17*
G36*
X145184835Y-86536128D02*
G01*
X144795926Y-86925037D01*
X143664555Y-85793666D01*
X144053464Y-85404757D01*
X145184835Y-86536128D01*
G37*
G04 #@! TD.AperFunction*
G04 #@! TA.AperFunction,SMDPad,CuDef*
G36*
X144619150Y-87101814D02*
G01*
X144230241Y-87490723D01*
X143098870Y-86359352D01*
X143487779Y-85970443D01*
X144619150Y-87101814D01*
G37*
G04 #@! TD.AperFunction*
G04 #@! TA.AperFunction,SMDPad,CuDef*
G36*
X144053464Y-87667499D02*
G01*
X143664555Y-88056408D01*
X142533184Y-86925037D01*
X142922093Y-86536128D01*
X144053464Y-87667499D01*
G37*
G04 #@! TD.AperFunction*
G04 #@! TA.AperFunction,SMDPad,CuDef*
G36*
X143487779Y-88233184D02*
G01*
X143098870Y-88622093D01*
X141967499Y-87490722D01*
X142356408Y-87101813D01*
X143487779Y-88233184D01*
G37*
G04 #@! TD.AperFunction*
G04 #@! TA.AperFunction,SMDPad,CuDef*
G36*
X142922093Y-88798870D02*
G01*
X142533184Y-89187779D01*
X141401813Y-88056408D01*
X141790722Y-87667499D01*
X142922093Y-88798870D01*
G37*
G04 #@! TD.AperFunction*
G04 #@! TA.AperFunction,SMDPad,CuDef*
G36*
X142356408Y-89364555D02*
G01*
X141967499Y-89753464D01*
X140836128Y-88622093D01*
X141225037Y-88233184D01*
X142356408Y-89364555D01*
G37*
G04 #@! TD.AperFunction*
G04 #@! TA.AperFunction,SMDPad,CuDef*
G36*
X141790723Y-89930241D02*
G01*
X141401814Y-90319150D01*
X140270443Y-89187779D01*
X140659352Y-88798870D01*
X141790723Y-89930241D01*
G37*
G04 #@! TD.AperFunction*
G04 #@! TA.AperFunction,SMDPad,CuDef*
G36*
X141225037Y-90495926D02*
G01*
X140836128Y-90884835D01*
X139704757Y-89753464D01*
X140093666Y-89364555D01*
X141225037Y-90495926D01*
G37*
G04 #@! TD.AperFunction*
G04 #@! TA.AperFunction,SMDPad,CuDef*
G36*
X140836128Y-91415165D02*
G01*
X141225037Y-91804074D01*
X140093666Y-92935445D01*
X139704757Y-92546536D01*
X140836128Y-91415165D01*
G37*
G04 #@! TD.AperFunction*
G04 #@! TA.AperFunction,SMDPad,CuDef*
G36*
X141401814Y-91980850D02*
G01*
X141790723Y-92369759D01*
X140659352Y-93501130D01*
X140270443Y-93112221D01*
X141401814Y-91980850D01*
G37*
G04 #@! TD.AperFunction*
G04 #@! TA.AperFunction,SMDPad,CuDef*
G36*
X141967499Y-92546536D02*
G01*
X142356408Y-92935445D01*
X141225037Y-94066816D01*
X140836128Y-93677907D01*
X141967499Y-92546536D01*
G37*
G04 #@! TD.AperFunction*
G04 #@! TA.AperFunction,SMDPad,CuDef*
G36*
X142533184Y-93112221D02*
G01*
X142922093Y-93501130D01*
X141790722Y-94632501D01*
X141401813Y-94243592D01*
X142533184Y-93112221D01*
G37*
G04 #@! TD.AperFunction*
G04 #@! TA.AperFunction,SMDPad,CuDef*
G36*
X143098870Y-93677907D02*
G01*
X143487779Y-94066816D01*
X142356408Y-95198187D01*
X141967499Y-94809278D01*
X143098870Y-93677907D01*
G37*
G04 #@! TD.AperFunction*
G04 #@! TA.AperFunction,SMDPad,CuDef*
G36*
X143664555Y-94243592D02*
G01*
X144053464Y-94632501D01*
X142922093Y-95763872D01*
X142533184Y-95374963D01*
X143664555Y-94243592D01*
G37*
G04 #@! TD.AperFunction*
G04 #@! TA.AperFunction,SMDPad,CuDef*
G36*
X144230241Y-94809277D02*
G01*
X144619150Y-95198186D01*
X143487779Y-96329557D01*
X143098870Y-95940648D01*
X144230241Y-94809277D01*
G37*
G04 #@! TD.AperFunction*
G04 #@! TA.AperFunction,SMDPad,CuDef*
G36*
X144795926Y-95374963D02*
G01*
X145184835Y-95763872D01*
X144053464Y-96895243D01*
X143664555Y-96506334D01*
X144795926Y-95374963D01*
G37*
G04 #@! TD.AperFunction*
G04 #@! TA.AperFunction,SMDPad,CuDef*
G36*
X147235445Y-96506334D02*
G01*
X146846536Y-96895243D01*
X145715165Y-95763872D01*
X146104074Y-95374963D01*
X147235445Y-96506334D01*
G37*
G04 #@! TD.AperFunction*
G04 #@! TA.AperFunction,SMDPad,CuDef*
G36*
X147801130Y-95940648D02*
G01*
X147412221Y-96329557D01*
X146280850Y-95198186D01*
X146669759Y-94809277D01*
X147801130Y-95940648D01*
G37*
G04 #@! TD.AperFunction*
G04 #@! TA.AperFunction,SMDPad,CuDef*
G36*
X148366816Y-95374963D02*
G01*
X147977907Y-95763872D01*
X146846536Y-94632501D01*
X147235445Y-94243592D01*
X148366816Y-95374963D01*
G37*
G04 #@! TD.AperFunction*
G04 #@! TA.AperFunction,SMDPad,CuDef*
G36*
X148932501Y-94809278D02*
G01*
X148543592Y-95198187D01*
X147412221Y-94066816D01*
X147801130Y-93677907D01*
X148932501Y-94809278D01*
G37*
G04 #@! TD.AperFunction*
G04 #@! TA.AperFunction,SMDPad,CuDef*
G36*
X149498187Y-94243592D02*
G01*
X149109278Y-94632501D01*
X147977907Y-93501130D01*
X148366816Y-93112221D01*
X149498187Y-94243592D01*
G37*
G04 #@! TD.AperFunction*
G04 #@! TA.AperFunction,SMDPad,CuDef*
G36*
X150063872Y-93677907D02*
G01*
X149674963Y-94066816D01*
X148543592Y-92935445D01*
X148932501Y-92546536D01*
X150063872Y-93677907D01*
G37*
G04 #@! TD.AperFunction*
G04 #@! TA.AperFunction,SMDPad,CuDef*
G36*
X150629557Y-93112221D02*
G01*
X150240648Y-93501130D01*
X149109277Y-92369759D01*
X149498186Y-91980850D01*
X150629557Y-93112221D01*
G37*
G04 #@! TD.AperFunction*
G04 #@! TA.AperFunction,SMDPad,CuDef*
G36*
X151195243Y-92546536D02*
G01*
X150806334Y-92935445D01*
X149674963Y-91804074D01*
X150063872Y-91415165D01*
X151195243Y-92546536D01*
G37*
G04 #@! TD.AperFunction*
G04 #@! TA.AperFunction,SMDPad,CuDef*
G36*
X150806334Y-89364555D02*
G01*
X151195243Y-89753464D01*
X150063872Y-90884835D01*
X149674963Y-90495926D01*
X150806334Y-89364555D01*
G37*
G04 #@! TD.AperFunction*
G04 #@! TA.AperFunction,SMDPad,CuDef*
G36*
X150240648Y-88798870D02*
G01*
X150629557Y-89187779D01*
X149498186Y-90319150D01*
X149109277Y-89930241D01*
X150240648Y-88798870D01*
G37*
G04 #@! TD.AperFunction*
G04 #@! TA.AperFunction,SMDPad,CuDef*
G36*
X149674963Y-88233184D02*
G01*
X150063872Y-88622093D01*
X148932501Y-89753464D01*
X148543592Y-89364555D01*
X149674963Y-88233184D01*
G37*
G04 #@! TD.AperFunction*
G04 #@! TA.AperFunction,SMDPad,CuDef*
G36*
X149109278Y-87667499D02*
G01*
X149498187Y-88056408D01*
X148366816Y-89187779D01*
X147977907Y-88798870D01*
X149109278Y-87667499D01*
G37*
G04 #@! TD.AperFunction*
G04 #@! TA.AperFunction,SMDPad,CuDef*
G36*
X148543592Y-87101813D02*
G01*
X148932501Y-87490722D01*
X147801130Y-88622093D01*
X147412221Y-88233184D01*
X148543592Y-87101813D01*
G37*
G04 #@! TD.AperFunction*
G04 #@! TA.AperFunction,SMDPad,CuDef*
G36*
X147977907Y-86536128D02*
G01*
X148366816Y-86925037D01*
X147235445Y-88056408D01*
X146846536Y-87667499D01*
X147977907Y-86536128D01*
G37*
G04 #@! TD.AperFunction*
G04 #@! TA.AperFunction,SMDPad,CuDef*
G36*
X147412221Y-85970443D02*
G01*
X147801130Y-86359352D01*
X146669759Y-87490723D01*
X146280850Y-87101814D01*
X147412221Y-85970443D01*
G37*
G04 #@! TD.AperFunction*
G04 #@! TA.AperFunction,SMDPad,CuDef*
G36*
X146846536Y-85404757D02*
G01*
X147235445Y-85793666D01*
X146104074Y-86925037D01*
X145715165Y-86536128D01*
X146846536Y-85404757D01*
G37*
G04 #@! TD.AperFunction*
G04 #@! TA.AperFunction,SMDPad,CuDef*
G36*
G01*
X158900000Y-86350001D02*
X158900000Y-85449999D01*
G75*
G02*
X159149999Y-85200000I249999J0D01*
G01*
X159800001Y-85200000D01*
G75*
G02*
X160050000Y-85449999I0J-249999D01*
G01*
X160050000Y-86350001D01*
G75*
G02*
X159800001Y-86600000I-249999J0D01*
G01*
X159149999Y-86600000D01*
G75*
G02*
X158900000Y-86350001I0J249999D01*
G01*
G37*
G04 #@! TD.AperFunction*
G04 #@! TA.AperFunction,SMDPad,CuDef*
G36*
G01*
X156850000Y-86350001D02*
X156850000Y-85449999D01*
G75*
G02*
X157099999Y-85200000I249999J0D01*
G01*
X157750001Y-85200000D01*
G75*
G02*
X158000000Y-85449999I0J-249999D01*
G01*
X158000000Y-86350001D01*
G75*
G02*
X157750001Y-86600000I-249999J0D01*
G01*
X157099999Y-86600000D01*
G75*
G02*
X156850000Y-86350001I0J249999D01*
G01*
G37*
G04 #@! TD.AperFunction*
G04 #@! TA.AperFunction,SMDPad,CuDef*
G36*
G01*
X158000000Y-89949999D02*
X158000000Y-90850001D01*
G75*
G02*
X157750001Y-91100000I-249999J0D01*
G01*
X157099999Y-91100000D01*
G75*
G02*
X156850000Y-90850001I0J249999D01*
G01*
X156850000Y-89949999D01*
G75*
G02*
X157099999Y-89700000I249999J0D01*
G01*
X157750001Y-89700000D01*
G75*
G02*
X158000000Y-89949999I0J-249999D01*
G01*
G37*
G04 #@! TD.AperFunction*
G04 #@! TA.AperFunction,SMDPad,CuDef*
G36*
G01*
X160050000Y-89949999D02*
X160050000Y-90850001D01*
G75*
G02*
X159800001Y-91100000I-249999J0D01*
G01*
X159149999Y-91100000D01*
G75*
G02*
X158900000Y-90850001I0J249999D01*
G01*
X158900000Y-89949999D01*
G75*
G02*
X159149999Y-89700000I249999J0D01*
G01*
X159800001Y-89700000D01*
G75*
G02*
X160050000Y-89949999I0J-249999D01*
G01*
G37*
G04 #@! TD.AperFunction*
D18*
X157750000Y-90500000D03*
X157850000Y-94450000D03*
X159500000Y-85950000D03*
X157900000Y-96600000D03*
X149775216Y-85325216D03*
X139490900Y-94834532D03*
X157900000Y-98800000D03*
X152800000Y-97350000D03*
X145917500Y-91392500D03*
X152100000Y-98800000D03*
X145200000Y-91975000D03*
X150775000Y-98475000D03*
X145500000Y-85650000D03*
X152500000Y-94650000D03*
X152925000Y-92350000D03*
X150750000Y-94950000D03*
X152000000Y-93200000D03*
X139950000Y-87000000D03*
X152907500Y-90267500D03*
X151200000Y-91200000D03*
X145700000Y-88050000D03*
X141500000Y-85450000D03*
D19*
X158650000Y-84250000D03*
D20*
X141525558Y-94508756D02*
X142161953Y-93872361D01*
X141199782Y-94834532D02*
X141525558Y-94508756D01*
X139490900Y-94834532D02*
X139490900Y-94834532D01*
X146970281Y-87932663D02*
X147606676Y-87296268D01*
X146970281Y-88250879D02*
X146970281Y-87932663D01*
X147783436Y-89064034D02*
X146970281Y-88250879D01*
X148101652Y-89064034D02*
X147783436Y-89064034D01*
X148738047Y-88427639D02*
X148101652Y-89064034D01*
X149577728Y-85325216D02*
X149775216Y-85325216D01*
X147606676Y-87296268D02*
X149577728Y-85325216D01*
X149775216Y-85325216D02*
X149775216Y-85325216D01*
X139490900Y-94834532D02*
X141199782Y-94834532D01*
D21*
X160400010Y-92949990D02*
X160400010Y-91363990D01*
X159850000Y-93500000D02*
X160400010Y-92949990D01*
X160400010Y-91363990D02*
X161457000Y-90307000D01*
X161457000Y-87906998D02*
X161457000Y-90307000D01*
X162423999Y-86939999D02*
X161457000Y-87906998D01*
X163576001Y-86939999D02*
X162423999Y-86939999D01*
X163586002Y-86950000D02*
X163576001Y-86939999D01*
X164190000Y-86950000D02*
X163586002Y-86950000D01*
X165540000Y-85600000D02*
X164190000Y-86950000D01*
D20*
X142727639Y-94496929D02*
X142727639Y-94438047D01*
X143144327Y-96284100D02*
X143222615Y-96205812D01*
X143144327Y-96284100D02*
X143214545Y-96213882D01*
X149940127Y-88356929D02*
X149303732Y-88993324D01*
X150659100Y-87637956D02*
X149940127Y-88356929D01*
X150659100Y-87340468D02*
X150659100Y-87637956D01*
X151224784Y-86774784D02*
X150659100Y-87340468D01*
X149259530Y-86774784D02*
X148172361Y-87861953D01*
X151224784Y-86774784D02*
X149259530Y-86774784D01*
D21*
X143222615Y-96205812D02*
X143859010Y-95569417D01*
X143222615Y-96559385D02*
X143222615Y-96205812D01*
X144713240Y-98050010D02*
X143222615Y-96559385D01*
X150108165Y-98050010D02*
X144713240Y-98050010D01*
X155275000Y-90800000D02*
X155275000Y-92883173D01*
X152966587Y-95191587D02*
X150108165Y-98050010D01*
X155275000Y-92883173D02*
X152966587Y-95191587D01*
X155275000Y-90800000D02*
X155275000Y-89900000D01*
D20*
X142091244Y-95074442D02*
X142727639Y-94438047D01*
X141740468Y-95425218D02*
X142091244Y-95074442D01*
X141740468Y-95934100D02*
X141740468Y-95425218D01*
X141174784Y-96499784D02*
X141740468Y-95934100D01*
X142928643Y-96499784D02*
X143859010Y-95569417D01*
X141174784Y-96499784D02*
X142928643Y-96499784D01*
X137800216Y-96499784D02*
X136525000Y-97775000D01*
X141174784Y-96499784D02*
X137800216Y-96499784D01*
X152966587Y-95191587D02*
X152966587Y-97183413D01*
X152966587Y-97183413D02*
X152800000Y-97350000D01*
X152800000Y-97350000D02*
X152800000Y-97350000D01*
D21*
X157425000Y-85900000D02*
X157425000Y-88150000D01*
X157400000Y-85900000D02*
X155275000Y-88025000D01*
X157425000Y-85900000D02*
X157400000Y-85900000D01*
X155275000Y-88025000D02*
X155275000Y-90800000D01*
X152075000Y-88025000D02*
X151024784Y-86974784D01*
X155275000Y-88025000D02*
X152075000Y-88025000D01*
D20*
X154200000Y-86950000D02*
X155275000Y-88025000D01*
X154200000Y-86700000D02*
X154200000Y-86950000D01*
X163000000Y-85600000D02*
X162300000Y-85600000D01*
X162850000Y-85600000D02*
X163000000Y-85600000D01*
X158925010Y-86925010D02*
X159050000Y-87050000D01*
X158911820Y-86925010D02*
X158925010Y-86925010D01*
X159050000Y-87050000D02*
X161400000Y-87050000D01*
X154200000Y-85450000D02*
X154775010Y-84874990D01*
X161400000Y-87050000D02*
X162850000Y-85600000D01*
X154200000Y-85700000D02*
X154200000Y-85450000D01*
X154775010Y-84874990D02*
X157988180Y-84874990D01*
X157988180Y-84874990D02*
X158500000Y-85386810D01*
X158500000Y-86513190D02*
X158911820Y-86925010D01*
X158500000Y-85386810D02*
X158500000Y-86513190D01*
X144495405Y-87366978D02*
X144495405Y-89970405D01*
X143859010Y-86730583D02*
X144495405Y-87366978D01*
X144495405Y-89970405D02*
X145917500Y-91392500D01*
X145925000Y-91400000D02*
X145925000Y-91400000D01*
X155400000Y-98800000D02*
X155950000Y-98800000D01*
X155400000Y-98800000D02*
X155600000Y-98800000D01*
X152100000Y-98800000D02*
X155400000Y-98800000D01*
X157075010Y-97674990D02*
X160124990Y-97674990D01*
X155950000Y-98800000D02*
X157075010Y-97674990D01*
X164200010Y-97149990D02*
X164650000Y-96700000D01*
X160649990Y-97149990D02*
X164200010Y-97149990D01*
X160124990Y-97674990D02*
X160649990Y-97149990D01*
X164650000Y-96700000D02*
X165540000Y-95760000D01*
X145917500Y-91392500D02*
X145925000Y-91400000D01*
X144045395Y-88048339D02*
X144045395Y-90820395D01*
X143293324Y-87296268D02*
X144045395Y-88048339D01*
X144045395Y-90820395D02*
X145200000Y-91975000D01*
X145200000Y-91975000D02*
X145200000Y-91975000D01*
X164260000Y-94500000D02*
X161949980Y-94500000D01*
X157100010Y-95499990D02*
X154425001Y-98174999D01*
X154425001Y-98174999D02*
X151075001Y-98174999D01*
X165540000Y-93220000D02*
X164260000Y-94500000D01*
X161949980Y-94500000D02*
X160949990Y-95499990D01*
X151075001Y-98174999D02*
X150775000Y-98475000D01*
X160949990Y-95499990D02*
X157100010Y-95499990D01*
X144985103Y-86164897D02*
X145500000Y-85650000D01*
X144424695Y-86164897D02*
X144985103Y-86164897D01*
X144424695Y-96135103D02*
X145864592Y-97575000D01*
X149911410Y-97575000D02*
X152500000Y-94986410D01*
X145864592Y-97575000D02*
X149911410Y-97575000D01*
X152500000Y-94986410D02*
X152500000Y-94650000D01*
X152500000Y-94650000D02*
X152500000Y-94650000D01*
X152925000Y-92350000D02*
X152925000Y-92350000D01*
X152725000Y-93499998D02*
X152725000Y-92550000D01*
X152725000Y-92550000D02*
X152925000Y-92350000D01*
X151812499Y-94412499D02*
X152725000Y-93499998D01*
X151812499Y-95037501D02*
X151812499Y-94412499D01*
X150000000Y-96850000D02*
X151812499Y-95037501D01*
X146475305Y-96575305D02*
X146975001Y-97075001D01*
X148175001Y-97075001D02*
X148400002Y-96850000D01*
X146475305Y-96135103D02*
X146475305Y-96575305D01*
X148400002Y-96850000D02*
X150000000Y-96850000D01*
X146975001Y-97075001D02*
X148175001Y-97075001D01*
X147040990Y-95569417D02*
X147040990Y-95615990D01*
X147040990Y-95569417D02*
X147560455Y-96088882D01*
X147560455Y-96088882D02*
X149611118Y-96088882D01*
X149611118Y-96088882D02*
X150750000Y-94950000D01*
X150750000Y-94950000D02*
X150750000Y-94950000D01*
X149251801Y-95523197D02*
X151549998Y-93225000D01*
X148408967Y-95523197D02*
X149251801Y-95523197D01*
X151549998Y-93225000D02*
X152000000Y-93225000D01*
X147889502Y-95003732D02*
X148408967Y-95523197D01*
X147606676Y-95003732D02*
X147889502Y-95003732D01*
X152875000Y-90300000D02*
X152875000Y-90300000D01*
X152875000Y-90300000D02*
X151975000Y-91200000D01*
X151200000Y-91200000D02*
X151975000Y-91200000D01*
X146404595Y-87366978D02*
X146383022Y-87366978D01*
X147040990Y-86730583D02*
X146404595Y-87366978D01*
X146383022Y-87366978D02*
X145705000Y-88045000D01*
X145700000Y-88050000D02*
X145700000Y-88050000D01*
X145705000Y-88045000D02*
X145700000Y-88050000D01*
X159475000Y-88150000D02*
X159475000Y-87950000D01*
X159475000Y-90400000D02*
X159475000Y-90200000D01*
D21*
X157850000Y-92550000D02*
X158200000Y-92550000D01*
X159475000Y-91275000D02*
X159475000Y-90400000D01*
X158200000Y-92550000D02*
X159475000Y-91275000D01*
X159475000Y-90400000D02*
X159475000Y-88150000D01*
D20*
X158600000Y-84300000D02*
X158650000Y-84250000D01*
X145850000Y-84300000D02*
X158600000Y-84300000D01*
X138350000Y-88250000D02*
X138350000Y-91725000D01*
X138350000Y-91725000D02*
X136525000Y-93550000D01*
X136475000Y-86375000D02*
X138350000Y-88250000D01*
X136525000Y-93550000D02*
X136525000Y-96125000D01*
X142727639Y-87861953D02*
X142727639Y-87627639D01*
X136475000Y-84975000D02*
X136475000Y-86375000D01*
X142208175Y-87342489D02*
X141742489Y-87342489D01*
X142727639Y-87861953D02*
X142208175Y-87342489D01*
X141742489Y-87342489D02*
X139450000Y-85050000D01*
X136700000Y-85050000D02*
X138850000Y-85050000D01*
X144800000Y-84300000D02*
X140000000Y-84300000D01*
X140000000Y-84300000D02*
X139250000Y-85050000D01*
X139450000Y-85050000D02*
X139250000Y-85050000D01*
X139250000Y-85050000D02*
X138850000Y-85050000D01*
M02*
