M48
; DRILL file {KiCad (5.1.6)-1} date 11/13/20 23:12:41
; FORMAT={-:-/ absolute / inch / decimal}
; #@! TF.CreationDate,2020-11-13T23:12:41+01:00
; #@! TF.GenerationSoftware,Kicad,Pcbnew,(5.1.6)-1
; #@! TF.FileFunction,Plated,1,2,PTH
FMAT,2
INCH
T1C0.0118
T2C0.0157
T3C0.0394
%
G90
G05
T1
X5.4918Y-3.7336
X5.5098Y-3.4252
X5.5709Y-3.3642
X5.7165Y-3.6211
X5.7283Y-3.372
X5.7362Y-3.4665
X5.7448Y-3.5981
X5.8967Y-3.3593
X5.935Y-3.7382
X5.936Y-3.877
X5.9528Y-3.5906
X5.9843Y-3.6693
X5.9882Y-3.8898
X6.0039Y-3.7264
X6.0157Y-3.8327
X6.02Y-3.5538
X6.0207Y-3.6358
T2
X6.2106Y-3.563
X6.2146Y-3.7185
X6.2165Y-3.8031
X6.2165Y-3.8898
X6.2461Y-3.3169
X6.2795Y-3.3839
T3
X6.4173Y-3.3701
X6.4173Y-3.4701
X6.4173Y-3.5701
X6.4173Y-3.6701
X6.4173Y-3.7701
X6.5173Y-3.3701
X6.5173Y-3.4701
X6.5173Y-3.5701
X6.5173Y-3.6701
X6.5173Y-3.7701
T0
M30
